<svg width="267" height="267" viewBox="0 0 267 267" fill="none" xmlns="http://www.w3.org/2000/svg">
<path fill-rule="evenodd" clip-rule="evenodd" d="M22.2629 0C9.96743 0 0 9.96167 0 22.25V244.75C0 257.038 9.96743 267 22.2629 267H244.737C257.032 267 267 257.038 267 244.75V136.871C267 94.0899 262.503 56.4735 237.034 31.4551C211.827 6.69325 171.908 0 119.192 0H22.2629ZM22.2629 22.25V244.75H244.737V136.871C244.737 50.9053 224.427 22.25 119.192 22.25H22.2629ZM45.8554 43.1086C42.4355 43.1086 39.2346 44.7907 37.2961 47.6067C35.3577 50.4227 34.9301 54.0116 36.1527 57.2039L84.3037 182.923C85.8127 186.863 89.5565 189.499 93.7764 189.592C97.9962 189.686 101.853 187.219 103.535 183.349L125.01 133.952L144.15 182.673C145.72 186.672 149.592 189.291 153.89 189.261C158.188 189.233 162.025 186.562 163.542 182.543L210.859 57.1561C212.063 53.9665 211.623 50.3894 209.684 47.5856C207.742 44.7818 204.55 43.1086 201.138 43.1086H182.478C178.026 43.1086 174.07 45.9425 172.64 50.1552L153.623 106.159L131.505 49.7061C129.946 45.7267 126.107 43.1086 121.831 43.1086H104.503C101.069 43.1086 97.8569 44.8044 95.9213 47.6393C93.9858 50.4741 93.5769 54.0817 94.8288 57.2774L105.683 84.983L96.6176 108.363L75.9771 50.03C74.5094 45.8819 70.5847 43.1086 66.1822 43.1086H45.8554ZM35.4661 207.667C35.4661 201.932 40.1175 197.283 45.8554 197.283H203.18C208.918 197.283 213.569 201.932 213.569 207.667V223.983C213.569 229.718 208.918 234.367 203.18 234.367H45.8554C40.1175 234.367 35.4661 229.718 35.4661 223.983V207.667Z" fill="#FFD25E"/>
</svg>
