<svg width="256" height="46" viewBox="0 0 256 46" fill="none" xmlns="http://www.w3.org/2000/svg">
<path d="M2.56274 4.0835H11.2758L18.7074 25.9173L24.4478 11.5152L21.4751 4.0835H28.8555L37.3123 25.046L43.7189 4.0835H51.7144L37.1585 43.1896L28.1893 20.8432L17.7336 43.2921L2.56274 4.0835Z" fill="#313131"/>
<path d="M52.8864 22.7399C52.8864 20.1431 53.3816 17.6829 54.3725 15.3594C55.3634 13.036 56.7302 10.9859 58.4728 9.20909C60.2495 7.39815 62.2997 5.98014 64.6231 4.95507C66.9466 3.93001 69.4409 3.41748 72.1061 3.41748C74.7371 3.41748 77.2143 3.93001 79.5378 4.95507C81.8613 5.98014 83.9114 7.39815 85.6881 9.20909C87.4991 10.9859 88.9 13.036 89.8909 15.3594C90.916 17.6829 91.4285 20.1431 91.4285 22.7399C91.4285 25.405 90.916 27.8994 89.8909 30.2228C88.9 32.5463 87.4991 34.5964 85.6881 36.3732C83.9114 38.1158 81.8613 39.4826 79.5378 40.4734C77.2143 41.4643 74.7371 41.9598 72.1061 41.9598C69.4409 41.9598 66.9466 41.4643 64.6231 40.4734C62.2997 39.4826 60.2495 38.1158 58.4728 36.3732C56.7302 34.5964 55.3634 32.5463 54.3725 30.2228C53.3816 27.8994 52.8864 25.405 52.8864 22.7399ZM60.5742 22.7399C60.5742 24.9609 61.0867 26.9939 62.1117 28.839C63.171 30.6499 64.589 32.1021 66.3657 33.1955C68.1425 34.2547 70.1414 34.7844 72.3624 34.7844C74.515 34.7844 76.4455 34.2547 78.1539 33.1955C79.8965 32.1021 81.2633 30.6499 82.2542 28.839C83.2451 26.9939 83.7405 24.9609 83.7405 22.7399C83.7405 20.4506 83.228 18.4005 82.2029 16.5895C81.1779 14.7444 79.794 13.2922 78.0514 12.233C76.3088 11.1396 74.3441 10.5929 72.1573 10.5929C69.9705 10.5929 68.0058 11.1396 66.2632 12.233C64.5206 13.2922 63.1368 14.7444 62.1117 16.5895C61.0867 18.4005 60.5742 20.4506 60.5742 22.7399Z" fill="#313131"/>
<path d="M110.267 3.82715C115.017 3.82715 118.656 4.98889 121.184 7.31236C123.747 9.60167 125.028 12.6768 125.028 16.5379C125.028 18.6905 124.567 20.809 123.644 22.8933C122.756 24.9776 121.235 26.6348 119.083 27.8648L127.847 41.5494H119.185L111.241 29.5562H106.269V41.5494H98.8378V3.82715H110.267ZM111.549 22.3808C113.052 22.3808 114.214 22.0732 115.034 21.4582C115.888 20.809 116.486 20.0573 116.828 19.2031C117.169 18.3147 117.34 17.5117 117.34 16.7942C117.34 16.3841 117.272 15.8716 117.135 15.2566C117.033 14.6074 116.793 13.9582 116.418 13.309C116.042 12.6598 115.461 12.1131 114.675 11.6689C113.923 11.2247 112.898 11.0026 111.6 11.0026H106.269V22.3808H111.549Z" fill="#313131"/>
<path d="M133.974 41.5494V3.82715H145.25C149.043 3.82715 152.272 4.39093 154.937 5.5185C157.602 6.64607 159.738 8.14949 161.343 10.0288C162.984 11.908 164.179 14.0094 164.931 16.3329C165.683 18.6564 166.059 20.9969 166.059 23.3546C166.059 26.1564 165.546 28.6849 164.521 30.94C163.53 33.161 162.164 35.0744 160.421 36.6804C158.678 38.2521 156.662 39.4651 154.373 40.3193C152.084 41.1394 149.658 41.5494 147.095 41.5494H133.974ZM141.406 34.374H145.814C149.572 34.374 152.596 33.4002 154.886 31.4525C157.209 29.5049 158.371 26.6347 158.371 22.842C158.371 20.3819 157.961 18.383 157.141 16.8454C156.355 15.2737 155.364 14.0607 154.168 13.2065C153.006 12.3522 151.81 11.7714 150.58 11.4639C149.35 11.1222 148.308 10.9513 147.454 10.9513H141.406V34.374Z" fill="#313131"/>
<path d="M173.515 3.82715H180.947V41.5494H173.515V3.82715Z" fill="#313131"/>
<path d="M190.683 3.82715H214.26V11.0026H198.115V19.5618H212.107V26.7373H198.115V41.5494H190.683V3.82715Z" fill="#313131"/>
<path d="M231.204 29.8124L217.314 3.82715H226.489L235.151 21.2532L243.607 3.82715H252.782L238.636 29.8124V41.5494H231.204V29.8124Z" fill="#313131"/>
<path fill-rule="evenodd" clip-rule="evenodd" d="M72.1061 5.9798C69.7794 5.9798 67.6391 6.42505 65.6578 7.29956C63.6312 8.19328 61.8512 9.42497 60.3024 11.0037C58.7867 12.5487 57.5972 14.3303 56.7297 16.3644C55.8786 18.3611 55.4489 20.4785 55.4489 22.7395C55.4489 25.0785 55.8818 27.229 56.7297 29.2172C57.594 31.2438 58.7776 33.0195 60.2853 34.5608C61.8267 36.068 63.6018 37.2516 65.6285 38.116C67.6167 38.9638 69.7671 39.3968 72.1061 39.3968C74.4066 39.3968 76.54 38.9654 78.5325 38.116C80.5671 37.2484 82.3487 36.0589 83.8938 34.5432C85.4661 33.0008 86.6753 31.2305 87.5338 29.2172C87.5381 29.2076 87.5423 29.198 87.5466 29.1883C88.4206 27.2066 88.8658 25.0662 88.8658 22.7395C88.8658 20.4908 88.4243 18.3836 87.5466 16.3932C87.5423 16.3836 87.5381 16.374 87.5338 16.3644C86.6753 14.3511 85.4661 12.5808 83.8938 11.0378C83.882 11.0266 83.8703 11.0149 83.8591 11.0037C82.3103 9.42497 80.5298 8.19328 78.5037 7.29956C76.5176 6.42345 74.3943 5.9798 72.1061 5.9798ZM63.589 2.60991C66.2542 1.43429 69.103 0.854492 72.1061 0.854492C75.0804 0.854492 77.911 1.43589 80.5725 2.60991C83.1853 3.7631 85.4997 5.36156 87.5007 7.39673C89.538 9.39987 91.1226 11.7191 92.2421 14.3394C93.4097 16.9923 93.9911 19.8005 93.9911 22.7395C93.9911 25.7373 93.4135 28.5808 92.2421 31.2422C91.1194 33.87 89.5289 36.1951 87.4831 38.202C85.4751 40.1715 83.1559 41.716 80.5431 42.8302C77.8886 43.9626 75.0681 44.5221 72.1061 44.5221C69.1147 44.5221 66.2766 43.9642 63.6179 42.8302C61.0055 41.716 58.6869 40.172 56.6784 38.2025C56.6667 38.1907 56.6549 38.179 56.6432 38.1672C54.6737 36.1593 53.1296 33.8401 52.0154 31.2278C50.8816 28.569 50.3237 25.7309 50.3237 22.7395C50.3237 19.8069 50.8852 17.004 52.0154 14.3538C53.1296 11.7415 54.6737 9.42229 56.6432 7.41434C58.6479 5.37116 60.9682 3.7663 63.589 2.60991ZM96.2751 3.82717C96.2751 2.41183 97.4224 1.26452 98.8378 1.26452H110.267C115.404 1.26452 119.749 2.52128 122.905 5.41334C126.073 8.25041 127.591 12.0538 127.591 16.5379C127.591 19.0627 127.049 21.5281 125.995 23.9141C125.215 25.7357 124.056 27.2808 122.564 28.5487L130.005 40.1672C130.511 40.9563 130.545 41.9578 130.095 42.7795C129.646 43.6011 128.784 44.1121 127.847 44.1121H119.185C118.326 44.1121 117.524 43.6812 117.049 42.9647L109.865 32.1188H108.832V41.5494C108.832 42.9647 107.685 44.1121 106.269 44.1121H98.8378C97.4224 44.1121 96.2751 42.9647 96.2751 41.5494V3.82717ZM101.4 6.38983V38.9868H103.707V29.5562C103.707 28.1409 104.854 26.9935 106.269 26.9935H111.241C112.101 26.9935 112.903 27.4244 113.378 28.1409L120.562 38.9868H123.163L116.925 29.2471C116.546 28.6555 116.427 27.9348 116.594 27.253C116.762 26.5712 117.202 25.9882 117.812 25.6396C119.527 24.6594 120.638 23.4096 121.287 21.8885C121.289 21.8837 121.291 21.8789 121.293 21.8741C121.296 21.8682 121.298 21.8618 121.301 21.856C122.087 20.0787 122.465 18.3126 122.465 16.5379C122.465 13.3063 121.425 10.9636 119.477 9.22368C119.468 9.21568 119.459 9.20767 119.45 9.19913C117.55 7.45332 114.622 6.38983 110.267 6.38983H101.4ZM131.412 3.82717C131.412 2.41183 132.559 1.26452 133.974 1.26452H145.25C149.284 1.26452 152.872 1.86247 155.935 3.15821C158.9 4.41284 161.379 6.12982 163.283 8.35399C165.142 10.4863 166.51 12.8878 167.369 15.5438C168.201 18.1134 168.621 20.7199 168.621 23.3546C168.621 26.4709 168.05 29.3645 166.858 31.9912C165.729 34.5192 164.161 36.7183 162.158 38.565L162.137 38.5831C160.145 40.3802 157.848 41.7582 155.269 42.7202C155.258 42.7245 155.248 42.7282 155.237 42.732C152.656 43.6567 149.936 44.1121 147.095 44.1121H133.974C132.559 44.1121 131.412 42.9647 131.412 41.5494V3.82717ZM136.537 6.38983V38.9868H147.095C149.373 38.9868 151.5 38.6242 153.493 37.9126C155.481 37.1683 157.207 36.1251 158.694 34.7861C160.169 33.4247 161.33 31.8028 162.181 29.8957L162.188 29.8797C163.043 27.9983 163.496 25.8388 163.496 23.3546C163.496 21.274 163.165 19.1993 162.493 17.122C161.85 15.1354 160.83 13.3373 159.412 11.7137L159.395 11.6934C158.088 10.1644 156.299 8.87774 153.938 7.87884C151.671 6.91944 148.801 6.38983 145.25 6.38983H136.537ZM170.952 3.82717C170.952 2.41183 172.1 1.26452 173.515 1.26452H180.947C182.362 1.26452 183.509 2.41183 183.509 3.82717V41.5494C183.509 42.9647 182.362 44.1121 180.947 44.1121H173.515C172.1 44.1121 170.952 42.9647 170.952 41.5494V3.82717ZM176.078 6.38983V38.9868H178.384V6.38983H176.078ZM188.121 3.82717C188.121 2.41183 189.268 1.26452 190.683 1.26452H214.259C214.832 1.26452 215.36 1.45244 215.787 1.76957C216.222 1.44657 216.756 1.26452 217.315 1.26452H226.489C227.462 1.26452 228.35 1.81549 228.783 2.68625L235.123 15.4403L241.302 2.70814C241.73 1.82509 242.625 1.26452 243.607 1.26452H252.782C253.685 1.26452 254.523 1.74074 254.984 2.51808C255.446 3.29542 255.464 4.25855 255.032 5.05244L241.198 30.4649V41.5494C241.198 42.9647 240.051 44.1121 238.636 44.1121H231.204C229.789 44.1121 228.641 42.9647 228.641 41.5494V30.4542L216.822 8.34224V11.0026C216.822 12.4179 215.674 13.5653 214.259 13.5653H200.677V16.9992H212.106C213.522 16.9992 214.669 18.1465 214.669 19.5619V26.7373C214.669 28.1526 213.522 29.2999 212.106 29.2999H200.677V41.5494C200.677 42.9647 199.53 44.1121 198.114 44.1121H190.683C189.268 44.1121 188.121 42.9647 188.121 41.5494V3.82717ZM193.245 6.38983V38.9868H195.552V26.7373C195.552 25.322 196.7 24.1746 198.114 24.1746H209.544V22.1245H198.114C196.7 22.1245 195.552 20.9772 195.552 19.5619V11.0026C195.552 9.58726 196.7 8.43995 198.114 8.43995H211.697V6.38983H193.245ZM221.59 6.38983L233.464 28.6043C233.663 28.9759 233.767 29.3912 233.767 29.8125V38.9868H236.073V29.8125C236.073 29.3843 236.18 28.9631 236.385 28.5872L248.469 6.38983H245.212L237.456 22.3722C237.029 23.251 236.14 23.811 235.163 23.8159C234.185 23.8207 233.291 23.2692 232.856 22.3941L224.901 6.38983H221.59ZM0.448783 2.635C0.926589 1.93774 1.71745 1.52077 2.56267 1.52077H11.2757C12.3728 1.52077 13.3482 2.21911 13.7017 3.25752L18.8968 18.5208L21.6883 11.5167L19.0957 5.03535C18.7799 4.24573 18.8762 3.35094 19.353 2.64674C19.8297 1.94255 20.6247 1.52077 21.475 1.52077H28.8555C29.9006 1.52077 30.841 2.15558 31.232 3.12458L36.9787 17.3692L41.2681 3.33439C41.5975 2.257 42.592 1.52077 43.7189 1.52077H51.7143C52.5537 1.52077 53.34 1.93187 53.8189 2.62112C54.2978 3.31036 54.4089 4.19074 54.1158 4.97715L39.5602 44.0832C39.1909 45.0757 38.2495 45.7383 37.191 45.7522C36.1324 45.7655 35.1745 45.1264 34.7802 44.1441L28.0146 27.2877L20.0566 44.3742C19.6229 45.3053 18.6749 45.8872 17.6481 45.8531C16.6214 45.8189 15.7143 45.175 15.3436 44.2167L0.172682 5.00812C-0.13232 4.22011 -0.029024 3.33172 0.448783 2.635ZM6.302 6.64608L17.9517 36.754L25.8661 19.761C26.2974 18.8352 27.2375 18.2538 28.2586 18.2816C29.2798 18.3094 30.1869 18.9404 30.5674 19.8886L37.0683 36.0851L48.026 6.64608H45.6153L39.763 25.795C39.4456 26.8334 38.5083 27.5589 37.4235 27.6059C36.3387 27.6534 35.3419 27.0117 34.9357 26.0048L27.126 6.64608H25.2602L26.8271 10.5632C27.0711 11.1734 27.0715 11.8536 26.8283 12.4638L21.0879 26.866C20.6906 27.8627 19.7144 28.5066 18.6418 28.4788C17.5691 28.4516 16.6271 27.7586 16.2814 26.7432L9.44093 6.64608H6.302ZM64.9168 10.0523C67.0897 8.693 69.5269 8.02992 72.1574 8.02992C74.7883 8.02992 77.2255 8.693 79.3985 10.0523C81.5244 11.348 83.2088 13.1259 84.4383 15.3361C85.6994 17.5673 86.3032 20.0568 86.3032 22.7395C86.3032 25.3572 85.7154 27.8104 84.512 30.0511L84.5024 30.0687C83.3022 32.2625 81.6312 34.0387 79.5159 35.3659L79.5047 35.3734C77.3617 36.7017 74.9571 37.3467 72.3624 37.3467C69.7148 37.3467 67.2563 36.7097 65.0535 35.3964C65.0433 35.39 65.0332 35.3841 65.023 35.3777C62.8859 34.0627 61.17 32.3041 59.8999 30.1323C59.8903 30.1162 59.8812 30.0997 59.8716 30.0831C58.6239 27.8371 58.0115 25.3727 58.0115 22.7395C58.0115 20.0568 58.6159 17.5673 59.8764 15.3356C61.1065 13.1259 62.7909 11.348 64.9168 10.0523ZM72.1574 13.1552C70.4206 13.1552 68.9338 13.5823 67.6252 14.4034C67.6151 14.4099 67.6049 14.4163 67.5942 14.4227C66.2456 15.2427 65.1693 16.3628 64.3519 17.8337L64.3418 17.8513C63.5565 19.2399 63.1368 20.8475 63.1368 22.7395C63.1368 24.5382 63.5447 26.1313 64.3386 27.5696C65.1816 29.0026 66.2921 30.1376 67.6935 31.003C69.0405 31.8023 70.5749 32.2214 72.3624 32.2214C74.0708 32.2214 75.5251 31.8081 76.7979 31.0206C78.1625 30.1632 79.2217 29.0394 80.0012 27.6171C80.7769 26.1698 81.1779 24.5601 81.1779 22.7395C81.1779 20.8475 80.7588 19.2399 79.9729 17.8513L79.9628 17.8337C79.1459 16.3628 78.0696 15.2427 76.7205 14.4227C76.7103 14.4163 76.6997 14.4099 76.6895 14.4034C75.381 13.5823 73.8941 13.1552 72.1574 13.1552ZM138.843 10.9513C138.843 9.536 139.991 8.38869 141.406 8.38869H147.454C148.615 8.38869 149.892 8.61505 151.235 8.9861C152.813 9.38545 154.292 10.1195 155.672 11.1318C157.253 12.2652 158.486 13.8162 159.418 15.6698C160.489 17.6938 160.933 20.1379 160.933 22.842C160.933 27.1831 159.58 30.8578 156.538 33.4114C153.68 35.8395 150.02 36.9366 145.814 36.9366H141.406C139.991 36.9366 138.843 35.7893 138.843 34.374V10.9513ZM143.969 13.514V31.8113H145.814C149.121 31.8113 151.506 30.963 153.225 29.5007L153.239 29.4884C154.84 28.1467 155.808 26.0838 155.808 22.842C155.808 20.6398 155.437 19.0968 154.879 18.0515C154.869 18.0317 154.858 18.0114 154.848 17.9917C154.213 16.721 153.473 15.8599 152.679 15.2918C152.669 15.2849 152.659 15.2779 152.65 15.271C151.72 14.5876 150.824 14.1664 149.959 13.9502C149.937 13.9448 149.916 13.939 149.894 13.9331C148.789 13.6261 147.992 13.514 147.454 13.514H143.969ZM103.707 11.0026C103.707 9.58726 104.854 8.43995 106.269 8.43995H111.6C113.14 8.43995 114.667 8.69514 115.957 9.44952C117.05 10.0715 117.993 10.914 118.635 12.025C119.133 12.8845 119.488 13.8028 119.653 14.7734C119.802 15.4605 119.903 16.1487 119.903 16.7942C119.903 17.9105 119.64 19.0317 119.219 20.123C119.217 20.1294 119.215 20.1353 119.212 20.1417C119.211 20.1459 119.209 20.1502 119.207 20.155C118.666 21.5073 117.746 22.6157 116.585 23.4987L116.571 23.5083C115.144 24.5793 113.358 24.9434 111.549 24.9434H106.269C104.854 24.9434 103.707 23.7961 103.707 22.3808V11.0026ZM108.832 13.5653V19.8181H111.549C112.736 19.8181 113.276 19.5715 113.491 19.4118C114.026 19.0039 114.3 18.6153 114.443 18.265C114.701 17.5891 114.777 17.1102 114.777 16.7942C114.777 16.6426 114.749 16.3313 114.634 15.8124C114.622 15.7606 114.612 15.7088 114.604 15.6565C114.557 15.3596 114.44 15.0073 114.2 14.593C114.095 14.4125 113.883 14.1648 113.414 13.9C113.4 13.892 113.386 13.8834 113.371 13.8749C113.161 13.751 112.648 13.5653 111.6 13.5653H108.832Z" fill="#313131"/>
</svg>
