<svg width="102" height="102" viewBox="0 0 102 102" fill="none" xmlns="http://www.w3.org/2000/svg">
<path d="M81.9045 74.6735H19.8278C17.6045 74.6735 15.8022 76.4746 15.8022 78.6968V84.7901C15.8022 87.0122 17.6045 88.8134 19.8278 88.8134H81.9045C84.1276 88.8134 85.9299 87.0122 85.9299 84.7901V78.6968C85.9299 76.4746 84.1276 74.6735 81.9045 74.6735ZM18.3745 17.0985C17.0494 17.0985 15.8092 17.7502 15.0582 18.8413C14.3069 19.9325 14.1413 21.3232 14.615 22.5601L32.5964 69.5088C33.1812 71.0353 34.6319 72.0566 36.2669 72.0927C37.9019 72.1292 39.3964 71.1729 40.0483 69.6738L47.9273 51.5499L54.9459 69.4166C55.5544 70.9659 57.0547 71.9805 58.72 71.9694C60.3853 71.9583 61.8719 70.9233 62.4593 69.3659L80.1299 22.5416C80.5964 21.3057 80.4261 19.9196 79.6742 18.8332C78.9223 17.7468 77.685 17.0985 76.3634 17.0985H69.3946C67.6701 17.0985 66.1369 18.1965 65.5827 19.8288L58.6095 40.3653L50.4952 19.6548C49.8911 18.1129 48.4034 17.0985 46.7468 17.0985H40.2759C38.9453 17.0985 37.7007 17.7555 36.9506 18.854C36.2007 19.9524 36.0421 21.3503 36.5273 22.5886L40.5599 32.8819L37.3375 41.1936L29.7605 19.7804C29.1917 18.173 27.671 17.0985 25.9655 17.0985H18.3745ZM9.35452 1C4.68248 1 0.894897 4.78528 0.894897 9.45481V92.5452C0.894897 97.2149 4.68248 101 9.35452 101H92.4354C97.1074 101 100.895 97.2149 100.895 92.5452V52.2589C100.895 36.2837 99.2191 22.1777 89.6608 12.7884C80.2016 3.49649 65.2389 1 45.5515 1H9.35452ZM45.5515 9.60058C65.2007 9.60058 76.8657 12.2789 83.6287 18.9222C90.3896 25.5638 92.2897 36.2061 92.2897 52.2589V92.3994H9.50029V9.60058H45.5515Z" fill="#313131" stroke="#313131" stroke-linejoin="round"/>
</svg>
