<?xml version="1.0" standalone="no"?>
<!DOCTYPE svg PUBLIC "-//W3C//DTD SVG 20010904//EN"
 "http://www.w3.org/TR/2001/REC-SVG-20010904/DTD/svg10.dtd">
<svg version="1.0" xmlns="http://www.w3.org/2000/svg"
 width="700.000000pt" height="700.000000pt" viewBox="0 0 700.000000 700.000000"
 preserveAspectRatio="xMidYMid meet">
<metadata>
Created by potrace 1.14, written by Peter Selinger 2001-2017
</metadata>
<g transform="translate(0.000000,700.000000) scale(0.100000,-0.100000)"
fill="#000000" stroke="none">
<path d="M454 6985 c-208 -45 -395 -234 -440 -444 -21 -99 -21 -5983 0 -6082
45 -213 232 -400 445 -445 99 -21 5983 -21 6082 0 214 46 399 231 445 445 11
55 14 331 14 1661 0 1788 -5 1971 -61 2399 -167 1289 -784 2009 -1974 2306
-363 90 -775 142 -1315 165 -133 6 -863 10 -1685 9 -1163 0 -1462 -3 -1511
-14z m3521 -598 c198 -18 197 -18 410 -48 1309 -182 1857 -743 1989 -2039 33
-319 36 -497 36 -2097 l0 -1613 -2910 0 -2910 0 0 2911 0 2910 1603 -4 c1380
-3 1627 -6 1782 -20z"/>
<path d="M1124 5859 c-60 -17 -126 -72 -158 -129 -27 -48 -31 -65 -31 -130 l0
-75 623 -1625 c343 -894 635 -1652 648 -1685 27 -67 79 -126 139 -158 57 -31
183 -31 241 0 90 48 99 66 404 767 156 360 287 652 291 648 3 -4 115 -286 248
-627 134 -341 255 -642 270 -669 27 -51 86 -101 144 -123 56 -20 146 -16 202
11 112 52 63 -65 764 1792 579 1533 634 1684 634 1739 0 80 -32 154 -90 205
-78 68 -101 72 -445 68 -273 -3 -307 -5 -338 -22 -43 -23 -107 -82 -125 -117
-8 -14 -125 -354 -261 -755 -136 -401 -250 -733 -254 -737 -4 -4 -139 331
-301 744 -316 808 -313 801 -407 857 l-47 27 -282 3 c-308 3 -334 0 -409 -51
-71 -47 -106 -110 -112 -200 l-4 -73 151 -386 151 -387 -117 -300 c-64 -166
-120 -298 -123 -294 -4 5 -127 350 -275 768 -147 418 -272 768 -277 778 -19
37 -82 99 -122 120 -40 21 -53 22 -371 24 -182 1 -344 -2 -361 -8z"/>
<path d="M1112 1811 c-60 -21 -122 -75 -155 -136 -21 -38 -22 -55 -25 -313 -3
-231 -1 -281 13 -322 22 -66 82 -132 147 -161 l53 -24 2120 0 2120 0 57 28
c32 16 73 47 93 70 58 68 65 108 65 393 0 302 -7 332 -92 408 -91 83 104 76
-2247 76 -2009 -1 -2098 -1 -2149 -19z"/>
</g>
</svg>
