<svg width="40" height="40" viewBox="0 0 40 40" fill="none" xmlns="http://www.w3.org/2000/svg">
<path fill-rule="evenodd" clip-rule="evenodd" d="M9.49344 7.54146C9.111 7.1851 8.60517 6.99109 8.08251 7.00031C7.55985 7.00954 7.06118 7.22127 6.69155 7.5909C6.32191 7.96053 6.11018 8.4592 6.10096 8.98186C6.09174 9.50452 6.28575 10.0104 6.64211 10.3928L16.6487 20.3994L6.64211 30.4059C6.4439 30.5906 6.28492 30.8133 6.17465 31.0608C6.06438 31.3083 6.00509 31.5754 6.00031 31.8463C5.99553 32.1172 6.04536 32.3863 6.14683 32.6375C6.2483 32.8887 6.39932 33.1169 6.5909 33.3084C6.78247 33.5 7.01067 33.6511 7.26188 33.7525C7.51309 33.854 7.78216 33.9038 8.05304 33.899C8.32393 33.8943 8.59107 33.835 8.83854 33.7247C9.08602 33.6144 9.30875 33.4555 9.49344 33.2572L19.5 23.2507L29.5066 33.2572C29.6913 33.4555 29.914 33.6144 30.1615 33.7247C30.4089 33.835 30.6761 33.8943 30.947 33.899C31.2178 33.9038 31.4869 33.854 31.7381 33.7525C31.9893 33.6511 32.2175 33.5 32.4091 33.3084C32.6007 33.1169 32.7517 32.8887 32.8532 32.6375C32.9546 32.3863 33.0045 32.1172 32.9997 31.8463C32.9949 31.5754 32.9356 31.3083 32.8254 31.0608C32.7151 30.8133 32.5561 30.5906 32.3579 30.4059L22.3513 20.3994L32.3579 10.3928C32.7143 10.0104 32.9083 9.50452 32.899 8.98186C32.8898 8.4592 32.6781 7.96053 32.3085 7.5909C31.9388 7.22127 31.4401 7.00954 30.9175 7.00031C30.3948 6.99109 29.889 7.1851 29.5066 7.54146L19.5 17.548L9.49344 7.54146Z" fill="white"/>
</svg>
