<svg width="40" height="40" viewBox="0 0 40 40" fill="none" xmlns="http://www.w3.org/2000/svg">
<path d="M6 7.875C6 7.37772 6.16227 6.90081 6.45111 6.54917C6.73995 6.19754 7.1317 6 7.54018 6H33.2098C33.6183 6 34.0101 6.19754 34.2989 6.54917C34.5877 6.90081 34.75 7.37772 34.75 7.875C34.75 8.37228 34.5877 8.84919 34.2989 9.20083C34.0101 9.55246 33.6183 9.75 33.2098 9.75H7.54018C7.1317 9.75 6.73995 9.55246 6.45111 9.20083C6.16227 8.84919 6 8.37228 6 7.875ZM6 20.375C6 19.8777 6.16227 19.4008 6.45111 19.0492C6.73995 18.6975 7.1317 18.5 7.54018 18.5H33.2098C33.6183 18.5 34.0101 18.6975 34.2989 19.0492C34.5877 19.4008 34.75 19.8777 34.75 20.375C34.75 20.8723 34.5877 21.3492 34.2989 21.7008C34.0101 22.0525 33.6183 22.25 33.2098 22.25H7.54018C7.1317 22.25 6.73995 22.0525 6.45111 21.7008C6.16227 21.3492 6 20.8723 6 20.375ZM7.54018 31H33.2098C33.6183 31 34.0101 31.1975 34.2989 31.5492C34.5877 31.9008 34.75 32.3777 34.75 32.875C34.75 33.3723 34.5877 33.8492 34.2989 34.2008C34.0101 34.5525 33.6183 34.75 33.2098 34.75H7.54018C7.1317 34.75 6.73995 34.5525 6.45111 34.2008C6.16227 33.8492 6 33.3723 6 32.875C6 32.3777 6.16227 31.9008 6.45111 31.5492C6.73995 31.1975 7.1317 31 7.54018 31Z" fill="white"/>
</svg>
