<svg width="40" height="40" viewBox="0 0 40 40" fill="none" xmlns="http://www.w3.org/2000/svg">
<path fill-rule="evenodd" clip-rule="evenodd" d="M23 7C23 6.46957 22.7893 5.96086 22.4142 5.58579C22.0391 5.21071 21.5304 5 21 5C20.4696 5 19.9609 5.21071 19.5858 5.58579C19.2107 5.96086 19 6.46957 19 7V19H7C6.46957 19 5.96086 19.2107 5.58579 19.5858C5.21071 19.9609 5 20.4696 5 21C5 21.5304 5.21071 22.0391 5.58579 22.4142C5.96086 22.7893 6.46957 23 7 23H19V35C19 35.5304 19.2107 36.0391 19.5858 36.4142C19.9609 36.7893 20.4696 37 21 37C21.5304 37 22.0391 36.7893 22.4142 36.4142C22.7893 36.0391 23 35.5304 23 35V23H35C35.5304 23 36.0391 22.7893 36.4142 22.4142C36.7893 22.0391 37 21.5304 37 21C37 20.4696 36.7893 19.9609 36.4142 19.5858C36.0391 19.2107 35.5304 19 35 19H23V7Z" fill="#313131"/>
</svg>
