<svg width="40" height="40" viewBox="0 0 40 40" fill="none" xmlns="http://www.w3.org/2000/svg">
<g clip-path="url(#clip0_440_387)">
<path d="M20 3.33325C29.205 3.33325 36.6667 10.7949 36.6667 19.9999C36.6667 29.2049 29.205 36.6666 20 36.6666C10.795 36.6666 3.33337 29.2049 3.33337 19.9999C3.33337 10.7949 10.795 3.33325 20 3.33325ZM20 6.66659C16.4638 6.66659 13.0724 8.07134 10.572 10.5718C8.07147 13.0723 6.66671 16.4637 6.66671 19.9999C6.66671 23.5361 8.07147 26.9275 10.572 29.428C13.0724 31.9285 16.4638 33.3333 20 33.3333C23.5363 33.3333 26.9276 31.9285 29.4281 29.428C31.9286 26.9275 33.3334 23.5361 33.3334 19.9999C33.3334 16.4637 31.9286 13.0723 29.4281 10.5718C26.9276 8.07134 23.5363 6.66659 20 6.66659ZM20 26.6666C20.4421 26.6666 20.866 26.8422 21.1786 27.1547C21.4911 27.4673 21.6667 27.8912 21.6667 28.3333C21.6667 28.7753 21.4911 29.1992 21.1786 29.5118C20.866 29.8243 20.4421 29.9999 20 29.9999C19.558 29.9999 19.1341 29.8243 18.8215 29.5118C18.509 29.1992 18.3334 28.7753 18.3334 28.3333C18.3334 27.8912 18.509 27.4673 18.8215 27.1547C19.1341 26.8422 19.558 26.6666 20 26.6666ZM20 10.8333C21.4038 10.8333 22.7638 11.3222 23.8463 12.2159C24.9289 13.1097 25.6664 14.3525 25.9322 15.7309C26.198 17.1093 25.9756 18.5372 25.303 19.7694C24.6305 21.0016 23.5498 21.9612 22.2467 22.4833C22.0547 22.5561 21.8811 22.6705 21.7384 22.8183C21.665 22.9016 21.6534 23.0083 21.655 23.1183L21.6667 23.3333C21.6662 23.7581 21.5036 24.1666 21.212 24.4755C20.9203 24.7844 20.5218 24.9703 20.0977 24.9952C19.6736 25.0201 19.2561 24.8821 18.9303 24.6095C18.6046 24.3368 18.3952 23.9501 18.345 23.5283L18.3334 23.3333V22.9166C18.3334 20.9949 19.8834 19.8416 21.0067 19.3899C21.4639 19.2074 21.8627 18.9037 22.1603 18.5116C22.458 18.1194 22.6432 17.6536 22.696 17.1642C22.7489 16.6747 22.6674 16.1801 22.4604 15.7335C22.2534 15.2868 21.9286 14.905 21.5209 14.629C21.1133 14.3531 20.6381 14.1933 20.1465 14.167C19.655 14.1407 19.1655 14.2488 18.7307 14.4797C18.2959 14.7106 17.9322 15.0556 17.6787 15.4776C17.4252 15.8995 17.2914 16.3826 17.2917 16.8749C17.2917 17.3169 17.1161 17.7409 16.8036 18.0534C16.491 18.366 16.0671 18.5416 15.625 18.5416C15.183 18.5416 14.7591 18.366 14.4465 18.0534C14.134 17.7409 13.9584 17.3169 13.9584 16.8749C13.9584 15.2726 14.5949 13.7358 15.7279 12.6028C16.861 11.4698 18.3977 10.8333 20 10.8333Z" fill="#313131"/>
</g>
<defs>
<clipPath id="clip0_440_387">
<rect width="40" height="40" fill="white"/>
</clipPath>
</defs>
</svg>
