<svg width="42" height="42" viewBox="0 0 42 42" fill="none" xmlns="http://www.w3.org/2000/svg">
<path d="M25.4 3.99985H3.39999V38.9999H38.6C38.6667 35.9999 38.76 27.3598 38.6 16.7998C38.44 6.23985 29.7333 3.86651 25.4 3.99985Z" fill="#FFB800"/>
<path d="M33.4038 30.4694H8.57318C7.68385 30.4694 6.96292 31.1899 6.96292 32.0787V34.516C6.96292 35.4049 7.68385 36.1254 8.57318 36.1254H33.4038C34.2931 36.1254 35.014 35.4049 35.014 34.516V32.0787C35.014 31.1899 34.2931 30.4694 33.4038 30.4694ZM7.99184 7.43938C7.46181 7.43938 6.96571 7.70008 6.66531 8.13654C6.36478 8.57299 6.29854 9.12927 6.48805 9.62404L13.6806 28.4035C13.9145 29.0141 14.4948 29.4226 15.1488 29.4371C15.8028 29.4517 16.4006 29.0692 16.6613 28.4695L19.8129 21.2199L22.6204 28.3667C22.8638 28.9864 23.4639 29.3922 24.13 29.3878C24.7962 29.3833 25.3908 28.9693 25.6258 28.3464L32.694 9.61664C32.8806 9.12226 32.8125 8.56785 32.5117 8.13328C32.211 7.69872 31.716 7.43938 31.1874 7.43938H28.3999C27.7101 7.43938 27.0968 7.87859 26.8751 8.53153L24.0858 16.7461L20.8401 8.46193C20.5985 7.84517 20.0034 7.43938 19.3408 7.43938H16.7524C16.2202 7.43938 15.7223 7.70221 15.4223 8.14159C15.1223 8.58097 15.0589 9.14013 15.2529 9.63545L16.866 13.7528L15.577 17.0774L12.5462 8.51215C12.3187 7.86919 11.7104 7.43938 11.0282 7.43938H7.99184ZM4.38385 1C2.51503 1 1 2.51411 1 4.38192V37.6181C1 39.486 2.51503 41 4.38385 41H37.6162C39.485 41 41 39.486 41 37.6181V21.5036C41 15.1135 40.3297 9.47108 36.5064 5.71535C32.7227 1.9986 26.7376 1 18.8626 1H4.38385ZM18.8626 4.44023C26.7223 4.44023 31.3883 5.51157 34.0935 8.16889C36.7979 10.8255 37.5579 15.0824 37.5579 21.5036V37.5598H4.44216V4.44023H18.8626Z" fill="#313131" stroke="#313131" stroke-linejoin="round"/>
</svg>
