<svg width="41" height="41" viewBox="0 0 41 41" fill="none" xmlns="http://www.w3.org/2000/svg">
<path d="M32.781 29.8758H8.1962C7.31567 29.8758 6.60188 30.5892 6.60188 31.4692V33.8824C6.60188 34.7625 7.31567 35.4758 8.1962 35.4758H32.781C33.6614 35.4758 34.3752 34.7625 34.3752 33.8824V31.4692C34.3752 30.5892 33.6614 29.8758 32.781 29.8758ZM7.62061 7.07387C7.09583 7.07387 6.60465 7.33198 6.30721 7.76412C6.00966 8.19625 5.94408 8.74702 6.13171 9.23689L13.2531 27.8304C13.4847 28.435 14.0592 28.8394 14.7067 28.8538C15.3543 28.8682 15.9461 28.4895 16.2043 27.8958L19.3247 20.718L22.1044 27.7939C22.3453 28.4075 22.9395 28.8093 23.599 28.8049C24.2586 28.8005 24.8473 28.3906 25.08 27.7738L32.0782 9.22957C32.263 8.74009 32.1955 8.19116 31.8977 7.7609C31.6 7.33063 31.1099 7.07387 30.5865 7.07387H27.8266C27.1437 7.07387 26.5364 7.50872 26.3169 8.1552L23.5553 16.2884L20.3417 8.08628C20.1025 7.47563 19.5132 7.07387 18.8572 7.07387H16.2945C15.7675 7.07387 15.2746 7.33409 14.9775 7.76912C14.6805 8.20415 14.6177 8.75777 14.8098 9.24819L16.4069 13.3247L15.1307 16.6165L12.1299 8.13601C11.9047 7.49942 11.3024 7.07387 10.627 7.07387H7.62061ZM4.04834 0.698242C2.19803 0.698242 0.697998 2.19736 0.697998 4.04668V36.9537C0.697998 38.8031 2.19803 40.3022 4.04834 40.3022H36.9517C38.802 40.3022 40.302 38.8031 40.302 36.9537V20.9988C40.302 14.672 39.6383 9.08545 35.8528 5.3669C32.1066 1.68695 26.1808 0.698242 18.3838 0.698242H4.04834ZM18.3838 4.10441C26.1657 4.10441 30.7855 5.16514 33.4639 7.79615C36.1415 10.4265 36.894 14.6412 36.894 20.9988V36.896H4.10608V4.10441H18.3838Z" fill="white"/>
</svg>
