<svg width="40" height="40" viewBox="0 0 40 40" fill="none" xmlns="http://www.w3.org/2000/svg">
<path fill-rule="evenodd" clip-rule="evenodd" d="M3.33526 0C1.49325 0 0 1.49238 0 3.33333V36.6667C0 38.5076 1.49325 40 3.33526 40H36.6647C38.5067 40 40 38.5076 40 36.6667V20.505C40 14.0959 39.3263 8.46044 35.5107 4.71238C31.7343 1.00273 25.754 0 17.8564 0H3.33526ZM3.33526 3.33333V36.6667H36.6647V20.505C36.6647 7.62627 33.6221 3.33333 17.8564 3.33333H3.33526ZM6.86973 6.45822C6.35738 6.45822 5.87784 6.71022 5.58743 7.13209C5.29704 7.55396 5.23298 8.09162 5.41613 8.56987L12.6298 27.4042C12.8558 27.9944 13.4167 28.3893 14.0489 28.4033C14.6811 28.4173 15.2589 28.0478 15.5109 27.468L18.7281 20.0677L21.5955 27.3667C21.8307 27.9658 22.4107 28.3582 23.0547 28.3538C23.6986 28.3496 24.2734 27.9493 24.5006 27.3473L31.5894 8.56271C31.7697 8.08487 31.7039 7.54898 31.4133 7.12893C31.1224 6.70889 30.6442 6.45822 30.133 6.45822H27.3376C26.6705 6.45822 26.078 6.88278 25.8636 7.51389L23.0146 15.904L19.7011 7.4466C19.4675 6.85044 18.8924 6.45822 18.2518 6.45822H15.6559C15.1414 6.45822 14.6602 6.71227 14.3702 7.13698C14.0803 7.56167 14.019 8.10213 14.2066 8.58089L15.8326 12.7315L14.4745 16.2342L11.3823 7.49513C11.1624 6.87369 10.5745 6.45822 9.91493 6.45822H6.86973ZM5.31327 31.1111C5.31327 30.252 6.01012 29.5556 6.86973 29.5556H30.4389C31.2985 29.5556 31.9954 30.252 31.9954 31.1111V33.5556C31.9954 34.4147 31.2985 35.1111 30.4389 35.1111H6.86973C6.01012 35.1111 5.31327 34.4147 5.31327 33.5556V31.1111Z" fill="#313131"/>
</svg>
