<svg width="255" height="40" viewBox="0 0 255 40" fill="none" xmlns="http://www.w3.org/2000/svg">
<path d="M2.55927 2.87012H11.2605L18.6822 22.2779L24.4148 9.47606L21.4461 2.87012H28.8166L37.262 21.5034L43.66 2.87012H51.6447L37.1084 37.6311L28.1512 17.7677L17.7097 37.7222L2.55927 2.87012Z" fill="white"/>
<path d="M52.8151 19.4538C52.8151 17.1455 53.3097 14.9587 54.2992 12.8934C55.2888 10.8281 56.6537 9.00577 58.394 7.42641C60.1683 5.81669 62.2157 4.55624 64.536 3.64507C66.8564 2.73391 69.3473 2.27832 72.0089 2.27832C74.6363 2.27832 77.1102 2.73391 79.4306 3.64507C81.7509 4.55624 83.7983 5.81669 85.5727 7.42641C87.3812 9.00577 88.7802 10.8281 89.7697 12.8934C90.7934 14.9587 91.3053 17.1455 91.3053 19.4538C91.3053 21.8228 90.7934 24.04 89.7697 26.1053C88.7802 28.1706 87.3812 29.9929 85.5727 31.5723C83.7983 33.1213 81.7509 34.3362 79.4306 35.217C77.1102 36.0977 74.6363 36.5381 72.0089 36.5381C69.3473 36.5381 66.8564 36.0977 64.536 35.217C62.2157 34.3362 60.1683 33.1213 58.394 31.5723C56.6537 29.9929 55.2888 28.1706 54.2992 26.1053C53.3097 24.04 52.8151 21.8228 52.8151 19.4538ZM60.4925 19.4538C60.4925 21.428 61.0043 23.2351 62.028 24.8752C63.0858 26.4849 64.5019 27.7758 66.2763 28.7477C68.0507 29.6892 70.0468 30.16 72.2648 30.16C74.4145 30.16 76.3425 29.6892 78.0486 28.7477C79.7889 27.7758 81.1538 26.4849 82.1433 24.8752C83.1329 23.2351 83.6277 21.428 83.6277 19.4538C83.6277 17.4189 83.1158 15.5965 82.0921 13.9868C81.0685 12.3467 79.6865 11.0559 77.9462 10.1144C76.206 9.14244 74.2439 8.65648 72.0601 8.65648C69.8762 8.65648 67.9142 9.14244 66.1739 10.1144C64.4337 11.0559 63.0517 12.3467 62.028 13.9868C61.0043 15.5965 60.4925 17.4189 60.4925 19.4538Z" fill="white"/>
<path d="M110.119 2.64258C114.862 2.64258 118.496 3.67524 121.021 5.74055C123.58 7.77548 124.86 10.509 124.86 13.941C124.86 15.8545 124.399 17.7375 123.478 19.5903C122.59 21.443 121.072 22.916 118.922 24.0094L127.675 36.1735H119.025L111.091 25.5128H106.126V36.1735H98.7046V2.64258H110.119ZM111.398 19.1347C112.9 19.1347 114.06 18.8613 114.879 18.3146C115.732 17.7376 116.329 17.0694 116.67 16.3101C117.011 15.5204 117.182 14.8066 117.182 14.1688C117.182 13.8043 117.114 13.3488 116.977 12.8021C116.875 12.225 116.636 11.6479 116.261 11.0709C115.885 10.4938 115.305 10.0078 114.52 9.613C113.77 9.21816 112.746 9.02074 111.449 9.02074H106.126V19.1347H111.398Z" fill="white"/>
<path d="M133.794 36.1735V2.64258H145.054C148.842 2.64258 152.067 3.14372 154.728 4.146C157.39 5.14828 159.522 6.48466 161.126 8.15513C162.764 9.8256 163.958 11.6935 164.709 13.7588C165.46 15.8241 165.835 17.9046 165.835 20.0003C165.835 22.4908 165.323 24.7383 164.299 26.7429C163.31 28.7171 161.945 30.4179 160.205 31.8454C158.465 33.2425 156.451 34.3208 154.165 35.0801C151.879 35.809 149.456 36.1735 146.897 36.1735H133.794ZM141.216 29.7953H145.617C149.371 29.7953 152.391 28.9297 154.677 27.1985C156.997 25.4673 158.157 22.916 158.157 19.5447C158.157 17.3579 157.748 15.5811 156.929 14.2144C156.144 12.8173 155.155 11.739 153.96 10.9797C152.8 10.2204 151.606 9.70412 150.377 9.43077C149.149 9.12704 148.108 8.97517 147.255 8.97517H141.216V29.7953Z" fill="white"/>
<path d="M173.281 2.64258H180.703V36.1735H173.281V2.64258Z" fill="white"/>
<path d="M190.426 2.64258H213.971V9.02074H197.848V16.629H211.821V23.0071H197.848V36.1735H190.426V2.64258Z" fill="white"/>
<path d="M230.893 25.7406L217.022 2.64258H226.184L234.834 18.1324L243.279 2.64258H252.441L238.314 25.7406V36.1735H230.893V25.7406Z" fill="white"/>
<path fill-rule="evenodd" clip-rule="evenodd" d="M72.0089 4.55583C69.6854 4.55583 67.5479 4.95161 65.5694 5.72895C63.5455 6.52337 61.7679 7.6182 60.2212 9.02149C58.7075 10.3949 57.5196 11.9785 56.6532 13.7866C55.8033 15.5615 55.3741 17.4436 55.3741 19.4534C55.3741 21.5325 55.8065 23.444 56.6532 25.2113C57.5164 27.0127 58.6984 28.5911 60.2041 29.9612C61.7434 31.3009 63.5161 32.353 65.54 33.1213C67.5255 33.8749 69.6731 34.2598 72.0089 34.2598C74.3064 34.2598 76.4369 33.8764 78.4267 33.1213C80.4586 32.3502 82.2377 31.2928 83.7807 29.9455C85.3509 28.5745 86.5585 27.0009 87.4159 25.2113C87.4201 25.2027 87.4244 25.1942 87.4287 25.1856C88.3014 23.4241 88.7461 21.5215 88.7461 19.4534C88.7461 17.4545 88.3052 15.5814 87.4287 13.8122C87.4244 13.8037 87.4201 13.7951 87.4159 13.7866C86.5585 11.997 85.3509 10.4234 83.7807 9.05186C83.769 9.04189 83.7573 9.03146 83.7461 9.02149C82.1994 7.6182 80.4212 6.52337 78.3979 5.72895C76.4145 4.95019 74.2941 4.55583 72.0089 4.55583ZM63.5033 1.56037C66.1649 0.515375 69.0099 0 72.0089 0C74.9792 0 77.8061 0.516799 80.4639 1.56037C83.0732 2.58543 85.3845 4.00628 87.3828 5.81532C89.4174 7.59589 90.9998 9.6574 92.1178 11.9866C93.2839 14.3447 93.8645 16.8409 93.8645 19.4534C93.8645 22.1181 93.2876 24.6456 92.1178 27.0113C90.9966 29.3471 89.4083 31.4139 87.3652 33.1977C85.36 34.9484 83.0439 36.3213 80.4346 37.3117C77.7837 38.3183 74.9669 38.8156 72.0089 38.8156C69.0216 38.8156 66.1873 38.3197 63.5321 37.3117C60.9233 36.3213 58.6078 34.9489 56.602 33.1982C56.5903 33.1878 56.5786 33.1773 56.5668 33.1669C54.6 31.3821 53.058 29.3205 51.9454 26.9985C50.8131 24.6352 50.2559 22.1124 50.2559 19.4534C50.2559 16.8466 50.8166 14.3551 51.9454 11.9994C53.058 9.67734 54.6 7.61582 56.5668 5.83098C58.5689 4.01482 60.886 2.58828 63.5033 1.56037ZM96.1454 2.64238C96.1454 1.3843 97.2912 0.364469 98.7046 0.364469H110.119C115.249 0.364469 119.588 1.48159 122.739 4.05231C125.904 6.57415 127.419 9.95496 127.419 13.9408C127.419 16.1851 126.878 18.3766 125.825 20.4974C125.047 22.1166 123.889 23.49 122.399 24.6171L129.83 34.9446C130.335 35.646 130.369 36.5363 129.92 37.2667C129.471 37.997 128.61 38.4512 127.675 38.4512H119.025C118.166 38.4512 117.365 38.0682 116.891 37.4313L109.717 27.7905H108.685V36.1733C108.685 37.4313 107.54 38.4512 106.126 38.4512H98.7046C97.2912 38.4512 96.1454 37.4313 96.1454 36.1733V2.64238ZM101.264 4.9203V33.8954H103.567V25.5126C103.567 24.2546 104.713 23.2347 106.126 23.2347H111.091C111.95 23.2347 112.751 23.6177 113.225 24.2546L120.399 33.8954H122.997L116.767 25.2379C116.389 24.712 116.27 24.0714 116.437 23.4653C116.605 22.8593 117.044 22.3411 117.653 22.0312C119.366 21.1599 120.476 20.049 121.124 18.6969C121.125 18.6927 121.127 18.6884 121.13 18.6841C121.132 18.6789 121.135 18.6732 121.138 18.668C121.923 17.0881 122.3 15.5183 122.3 13.9408C122.3 11.0683 121.261 8.98589 119.316 7.43928C119.307 7.43216 119.298 7.42505 119.289 7.41746C117.392 5.86563 114.468 4.9203 110.119 4.9203H101.264ZM131.235 2.64238C131.235 1.3843 132.38 0.364469 133.794 0.364469H145.054C149.083 0.364469 152.666 0.89598 155.725 2.04775C158.686 3.16298 161.162 4.68918 163.063 6.66622C164.919 8.56163 166.286 10.6962 167.144 13.0572C167.974 15.3413 168.394 17.6581 168.394 20.0001C168.394 22.7701 167.824 25.3423 166.633 27.6771C165.506 29.9242 163.94 31.8789 161.939 33.5204L161.919 33.5366C159.929 35.134 157.635 36.3588 155.06 37.214C155.049 37.2178 155.038 37.2211 155.028 37.2244C152.45 38.0464 149.734 38.4512 146.897 38.4512H133.794C132.38 38.4512 131.235 37.4313 131.235 36.1733V2.64238ZM136.353 4.9203V33.8954H146.897C149.172 33.8954 151.296 33.5731 153.286 32.9405C155.272 32.279 156.996 31.3517 158.481 30.1615C159.953 28.9513 161.113 27.5096 161.962 25.8144L161.97 25.8002C162.823 24.1278 163.276 22.2082 163.276 20.0001C163.276 18.1507 162.945 16.3065 162.274 14.46C161.632 12.6941 160.613 11.0958 159.198 9.65266L159.181 9.63462C157.875 8.27547 156.089 7.13177 153.731 6.24386C151.466 5.39107 148.6 4.9203 145.054 4.9203H136.353ZM170.722 2.64238C170.722 1.3843 171.868 0.364469 173.281 0.364469H180.703C182.116 0.364469 183.262 1.3843 183.262 2.64238V36.1733C183.262 37.4313 182.116 38.4512 180.703 38.4512H173.281C171.868 38.4512 170.722 37.4313 170.722 36.1733V2.64238ZM175.84 4.9203V33.8954H178.144V4.9203H175.84ZM187.867 2.64238C187.867 1.3843 189.013 0.364469 190.426 0.364469H213.97C214.542 0.364469 215.07 0.531508 215.496 0.8134C215.931 0.526288 216.463 0.364469 217.022 0.364469H226.184C227.155 0.364469 228.043 0.854217 228.475 1.62823L234.806 12.9651L240.977 1.64768C241.404 0.862752 242.299 0.364469 243.279 0.364469H252.441C253.344 0.364469 254.18 0.787777 254.641 1.47874C255.102 2.16971 255.12 3.02583 254.689 3.73151L240.873 26.3203V36.1733C240.873 37.4313 239.728 38.4512 238.314 38.4512H230.893C229.479 38.4512 228.333 37.4313 228.333 36.1733V26.3108L216.53 6.65577V9.02053C216.53 10.2786 215.384 11.2985 213.97 11.2985H200.407V14.3508H211.821C213.234 14.3508 214.38 15.3707 214.38 16.6288V23.0069C214.38 24.265 213.234 25.2848 211.821 25.2848H200.407V36.1733C200.407 37.4313 199.261 38.4512 197.847 38.4512H190.426C189.013 38.4512 187.867 37.4313 187.867 36.1733V2.64238ZM192.985 4.9203V33.8954H195.288V23.0069C195.288 21.7489 196.435 20.729 197.847 20.729H209.261V18.9067H197.847C196.435 18.9067 195.288 17.8868 195.288 16.6288V9.02053C195.288 7.76246 196.435 6.74263 197.847 6.74263H211.412V4.9203H192.985ZM221.291 4.9203L233.149 24.6665C233.348 24.9968 233.452 25.366 233.452 25.7404V33.8954H235.755V25.7404C235.755 25.3598 235.862 24.9854 236.066 24.6513L248.134 4.9203H244.882L237.136 19.1269C236.71 19.908 235.822 20.4058 234.846 20.4101C233.87 20.4144 232.976 19.9241 232.542 19.1463L224.598 4.9203H221.291ZM0.448178 1.58267C0.925341 0.962889 1.71514 0.592251 2.55921 0.592251H11.2605C12.3561 0.592251 13.3302 1.21299 13.6832 2.13602L18.8713 15.7034L21.6591 9.47755L19.0699 3.71632C18.7546 3.01444 18.8508 2.21906 19.3269 1.59311C19.803 0.967161 20.5969 0.592251 21.4461 0.592251H28.8166C29.8603 0.592251 30.7994 1.15652 31.1899 2.01786L36.9289 14.6797L41.2125 2.20435C41.5414 1.24668 42.5347 0.592251 43.66 0.592251H51.6447C52.4829 0.592251 53.2681 0.957668 53.7464 1.57033C54.2246 2.183 54.3355 2.96555 54.0428 3.66459L39.5068 38.4255C39.1381 39.3078 38.198 39.8967 37.1409 39.909C36.0838 39.9209 35.1272 39.3528 34.7334 38.4796L27.9768 23.4962L20.0296 38.6842C19.5964 39.5118 18.6498 40.0291 17.6244 39.9987C16.599 39.9684 15.6931 39.396 15.3229 38.5442L0.17245 3.69212C-0.132142 2.99166 -0.0289849 2.20198 0.448178 1.58267ZM6.29351 5.14808L17.9275 31.9107L25.8313 16.8058C26.262 15.9829 27.2008 15.4661 28.2205 15.4908C29.2403 15.5154 30.1463 16.0764 30.5262 16.9192L37.0184 31.3161L47.9613 5.14808H45.5539L39.7094 22.1693C39.3925 23.0923 38.4564 23.7373 37.3731 23.779C36.2897 23.8213 35.2943 23.2509 34.8886 22.3558L27.0894 5.14808H25.2261L26.7909 8.62997C27.0346 9.1724 27.035 9.77699 26.7921 10.3194L21.0595 23.1213C20.6627 24.0073 19.6879 24.5796 18.6166 24.555C17.5455 24.5308 16.6047 23.9148 16.2595 23.0121L9.42821 5.14808H6.29351ZM64.8293 8.17581C66.9993 6.96757 69.4332 6.37816 72.0601 6.37816C74.6876 6.37816 77.1215 6.96757 79.2915 8.17581C81.4145 9.32758 83.0967 10.9079 84.3246 12.8726C85.5839 14.8558 86.1869 17.0687 86.1869 19.4534C86.1869 21.7802 85.5999 23.9608 84.3981 25.9526L84.3885 25.9682C83.19 27.9182 81.5212 29.4971 79.4088 30.6768L79.3976 30.6835C77.2574 31.8642 74.8561 32.4375 72.2649 32.4375C69.6209 32.4375 67.1657 31.8713 64.9658 30.7039C64.9557 30.6982 64.9456 30.693 64.9354 30.6873C62.8012 29.5184 61.0876 27.9552 59.8192 26.0247C59.8096 26.0104 59.8005 25.9957 59.7909 25.981C58.5449 23.9845 57.9333 21.7939 57.9333 19.4534C57.9333 17.0687 58.5369 14.8558 59.7957 12.8721C61.0241 10.9079 62.7063 9.32758 64.8293 8.17581ZM72.0601 10.934C70.3257 10.934 68.8409 11.3136 67.5341 12.0435C67.524 12.0492 67.5138 12.0549 67.5032 12.0606C66.1564 12.7895 65.0815 13.7852 64.2652 15.0926L64.2551 15.1083C63.4708 16.3426 63.0517 17.7715 63.0517 19.4534C63.0517 21.0522 63.4591 22.4683 64.2519 23.7468C65.0938 25.0205 66.2028 26.0294 67.6023 26.7987C68.9475 27.5091 70.4798 27.8817 72.2649 27.8817C73.971 27.8817 75.4233 27.5143 76.6944 26.8144C78.0572 26.0522 79.115 25.0532 79.8934 23.789C80.6681 22.5025 81.0685 21.0716 81.0685 19.4534C81.0685 17.7715 80.65 16.3426 79.8651 15.1083L79.855 15.0926C79.0393 13.7852 77.9644 12.7895 76.6171 12.0606C76.607 12.0549 76.5963 12.0492 76.5862 12.0435C75.2794 11.3136 73.7945 10.934 72.0601 10.934ZM138.656 8.97497C138.656 7.7169 139.802 6.69706 141.216 6.69706H147.255C148.414 6.69706 149.69 6.89827 151.032 7.2281C152.607 7.58307 154.084 8.23561 155.462 9.13538C157.042 10.1429 158.273 11.5215 159.203 13.1692C160.273 14.9683 160.717 17.1408 160.717 19.5445C160.717 23.4032 159.365 26.6696 156.327 28.9395C153.473 31.0978 149.818 32.073 145.617 32.073H141.216C139.802 32.073 138.656 31.0532 138.656 29.7951V8.97497ZM143.775 11.2529V27.5172H145.617C148.92 27.5172 151.302 26.7631 153.018 25.4633L153.033 25.4524C154.632 24.2598 155.598 22.4261 155.598 19.5445C155.598 17.5869 155.228 16.2154 154.671 15.2862C154.66 15.2687 154.65 15.2506 154.64 15.2331C154.005 14.1036 153.267 13.3381 152.473 12.8332C152.463 12.827 152.454 12.8209 152.444 12.8147C151.516 12.2072 150.621 11.8328 149.757 11.6406C149.735 11.6359 149.714 11.6306 149.692 11.6254C148.589 11.3526 147.793 11.2529 147.255 11.2529H143.775ZM103.567 9.02053C103.567 7.76246 104.713 6.74263 106.126 6.74263H111.449C112.988 6.74263 114.513 6.96946 115.801 7.64003C116.892 8.19289 117.834 8.94176 118.475 9.92933C118.972 10.6934 119.327 11.5096 119.492 12.3724C119.641 12.9831 119.741 13.5949 119.741 14.1686C119.741 15.1609 119.478 16.1575 119.059 17.1275C119.057 17.1332 119.054 17.1385 119.052 17.1441C119.05 17.1479 119.048 17.1517 119.046 17.156C118.506 18.3581 117.588 19.3433 116.428 20.1282L116.414 20.1368C114.989 21.0887 113.206 21.4124 111.398 21.4124H106.126C104.713 21.4124 103.567 20.3925 103.567 19.1345V9.02053ZM108.685 11.2985V16.8566H111.398C112.585 16.8566 113.123 16.6373 113.338 16.4954C113.872 16.1328 114.146 15.7874 114.289 15.476C114.546 14.8752 114.623 14.4496 114.623 14.1686C114.623 14.0338 114.594 13.7572 114.479 13.2959C114.468 13.2499 114.458 13.2038 114.45 13.1573C114.403 12.8935 114.286 12.5803 114.046 12.212C113.941 12.0516 113.73 11.8314 113.261 11.596C113.247 11.5889 113.233 11.5813 113.218 11.5737C113.009 11.4636 112.496 11.2985 111.449 11.2985H108.685Z" fill="white"/>
</svg>
