<svg width="160" height="25" viewBox="0 0 160 25" fill="none" xmlns="http://www.w3.org/2000/svg">
<path d="M1.60581 1.79382H7.06543L11.7222 13.9237L15.3191 5.92254L13.4564 1.79382H18.081L23.3801 13.4397L27.3945 1.79382H32.4045L23.2837 23.5194L17.6635 11.1048L11.112 23.5764L1.60581 1.79382Z" fill="white"/>
<path d="M33.1389 12.1586C33.1389 10.7159 33.4492 9.34919 34.0701 8.05838C34.691 6.76756 35.5474 5.6286 36.6393 4.64151C37.7527 3.63543 39.0373 2.84765 40.4932 2.27817C41.9491 1.70869 43.5121 1.42395 45.1821 1.42395C46.8306 1.42395 48.3829 1.70869 49.8388 2.27817C51.2947 2.84765 52.5793 3.63543 53.6926 4.64151C54.8274 5.6286 55.7052 6.76756 56.3261 8.05838C56.9684 9.34919 57.2896 10.7159 57.2896 12.1586C57.2896 13.6393 56.9684 15.025 56.3261 16.3158C55.7052 17.6066 54.8274 18.7456 53.6926 19.7327C52.5793 20.7008 51.2947 21.4601 49.8388 22.0106C48.3829 22.5611 46.8306 22.8363 45.1821 22.8363C43.5121 22.8363 41.9491 22.5611 40.4932 22.0106C39.0373 21.4601 37.7527 20.7008 36.6393 19.7327C35.5474 18.7456 34.691 17.6066 34.0701 16.3158C33.4492 15.025 33.1389 13.6393 33.1389 12.1586ZM37.9561 12.1586C37.9561 13.3925 38.2772 14.5219 38.9195 15.547C39.5833 16.5531 40.4718 17.3598 41.5851 17.9673C42.6985 18.5558 43.951 18.85 45.3426 18.85C46.6915 18.85 47.9012 18.5558 48.9717 17.9673C50.0636 17.3598 50.92 16.5531 51.5409 15.547C52.1618 14.5219 52.4723 13.3925 52.4723 12.1586C52.4723 10.8868 52.1511 9.74782 51.5088 8.74174C50.8665 7.71668 49.9994 6.90993 48.9074 6.32147C47.8155 5.71403 46.5844 5.4103 45.2142 5.4103C43.8439 5.4103 42.6128 5.71403 41.5209 6.32147C40.429 6.90993 39.5619 7.71668 38.9195 8.74174C38.2772 9.74782 37.9561 10.8868 37.9561 12.1586Z" fill="white"/>
<path d="M69.094 1.65161C72.0701 1.65161 74.3503 2.29702 75.9346 3.58784C77.5404 4.85968 78.3433 6.56811 78.3433 8.71315C78.3433 9.90905 78.0542 11.086 77.4762 12.2439C76.9195 13.4018 75.9667 14.3225 74.6179 15.0059L80.1096 22.6084H74.6821L69.7042 15.9455H66.589V22.6084H61.9323V1.65161H69.094ZM69.8969 11.9592C70.839 11.9592 71.5669 11.7883 72.0808 11.4466C72.616 11.086 72.9907 10.6684 73.2048 10.1938C73.4189 9.70024 73.526 9.25414 73.526 8.85551C73.526 8.62772 73.4831 8.34299 73.3975 8.0013C73.3333 7.64063 73.1834 7.27996 72.9479 6.91929C72.7124 6.55862 72.3484 6.2549 71.856 6.00813C71.3849 5.76135 70.7426 5.63796 69.929 5.63796H66.589V11.9592H69.8969Z" fill="white"/>
<path d="M83.9491 22.6084V1.65161H91.0145C93.391 1.65161 95.4143 1.96482 97.0843 2.59125C98.7543 3.21768 100.092 4.05291 101.099 5.09695C102.126 6.141 102.876 7.30843 103.347 8.59925C103.818 9.89007 104.053 11.1904 104.053 12.5002C104.053 14.0568 103.732 15.4615 103.09 16.7143C102.469 17.9482 101.613 19.0112 100.521 19.9034C99.4287 20.7766 98.1655 21.4505 96.731 21.925C95.2965 22.3806 93.7764 22.6084 92.1706 22.6084H83.9491ZM88.6058 18.6221H91.3677C93.7229 18.6221 95.6177 18.0811 97.0522 16.9991C98.5081 15.917 99.236 14.3225 99.236 12.2154C99.236 10.8487 98.9791 9.7382 98.4652 8.88399C97.9728 8.01079 97.3519 7.3369 96.6026 6.86234C95.8746 6.38777 95.1252 6.06507 94.3545 5.89423C93.5837 5.7044 92.9307 5.60948 92.3954 5.60948H88.6058V18.6221Z" fill="white"/>
<path d="M108.725 1.65161H113.382V22.6084H108.725V1.65161Z" fill="white"/>
<path d="M119.483 1.65161H134.256V5.63796H124.14V10.3931H132.907V14.3795H124.14V22.6084H119.483V1.65161Z" fill="white"/>
<path d="M144.874 16.0879L136.17 1.65161H141.919L147.347 11.3327L152.646 1.65161H158.394L149.53 16.0879V22.6084H144.874V16.0879Z" fill="white"/>
<path fill-rule="evenodd" clip-rule="evenodd" d="M45.1821 2.84739C43.7242 2.84739 42.383 3.09476 41.1416 3.58059C39.8717 4.07711 38.7563 4.76137 37.7858 5.63843C36.8361 6.4968 36.0907 7.48656 35.5471 8.61662C35.0139 9.72592 34.7446 10.9022 34.7446 12.1584C34.7446 13.4578 35.0159 14.6525 35.5471 15.757C36.0887 16.883 36.8304 17.8695 37.7751 18.7257C38.7409 19.5631 39.8533 20.2206 41.1232 20.7008C42.369 21.1718 43.7165 21.4124 45.1821 21.4124C46.6236 21.4124 47.9604 21.1727 49.2089 20.7008C50.4838 20.2188 51.6002 19.558 52.5683 18.716C53.5535 17.8591 54.3112 16.8755 54.8492 15.757C54.8518 15.7517 54.8545 15.7464 54.8572 15.741C55.4048 14.64 55.6838 13.451 55.6838 12.1584C55.6838 10.9091 55.4072 9.73838 54.8572 8.63264C54.8545 8.6273 54.8518 8.62196 54.8492 8.61662C54.3112 7.49813 53.5535 6.5146 52.5683 5.65741C52.5609 5.65118 52.5536 5.64466 52.5466 5.63843C51.5761 4.76137 50.4604 4.07711 49.1908 3.58059C47.9464 3.09387 46.6159 2.84739 45.1821 2.84739ZM39.8452 0.97523C41.5152 0.322109 43.3003 0 45.1821 0C47.0458 0 48.8195 0.322999 50.4872 0.97523C52.1244 1.61589 53.5746 2.50392 54.8284 3.63458C56.105 4.74743 57.0979 6.03587 57.7994 7.4916C58.5311 8.96543 58.8954 10.5256 58.8954 12.1584C58.8954 13.8238 58.5334 15.4035 57.7994 16.8821C57.0959 18.3419 56.0993 19.6337 54.8174 20.7486C53.5592 21.8428 52.106 22.7008 50.4688 23.3198C48.8054 23.9489 47.0381 24.2598 45.1821 24.2598C43.3077 24.2598 41.5293 23.9498 39.8633 23.3198C38.2264 22.7008 36.7735 21.843 35.515 20.7489C35.5076 20.7423 35.5003 20.7358 35.4929 20.7293C34.2588 19.6138 33.2913 18.3253 32.5932 16.8741C31.8827 15.397 31.5331 13.8202 31.5331 12.1584C31.5331 10.5291 31.8849 8.97195 32.5932 7.49961C33.2913 6.04833 34.2588 4.75989 35.4929 3.64436C36.7491 2.50926 38.203 1.61767 39.8452 0.97523ZM60.3265 1.65148C60.3265 0.86519 61.0454 0.227793 61.9323 0.227793H69.094C72.3129 0.227793 75.0354 0.925996 77.0128 2.5327C78.9983 4.10885 79.9491 6.22185 79.9491 8.71302C79.9491 10.1157 79.6095 11.4854 78.9491 12.8109C78.4607 13.8229 77.7344 14.6813 76.7994 15.3857L81.4618 21.8404C81.7786 22.2788 81.8 22.8352 81.5184 23.2917C81.2367 23.7481 80.6967 24.032 80.1096 24.032H74.6821C74.1435 24.032 73.641 23.7926 73.3436 23.3946L68.8418 17.3691H68.1948V22.6083C68.1948 23.3946 67.4759 24.032 66.589 24.032H61.9323C61.0454 24.032 60.3265 23.3946 60.3265 22.6083V1.65148ZM63.5381 3.07519V21.1846H64.9833V15.9454C64.9833 15.1591 65.7022 14.5217 66.589 14.5217H69.7042C70.2428 14.5217 70.7456 14.7611 71.043 15.1591L75.5446 21.1846H77.1744L73.2657 15.7737C73.0285 15.445 72.9536 15.0446 73.0586 14.6658C73.1637 14.2871 73.4393 13.9632 73.8214 13.7695C74.8962 13.2249 75.5927 12.5306 75.9992 11.6856C76.0002 11.6829 76.0015 11.6802 76.0029 11.6776C76.0045 11.6743 76.0062 11.6707 76.0079 11.6675C76.5007 10.6801 76.7375 9.69893 76.7375 8.71302C76.7375 6.91768 76.0855 5.61618 74.8648 4.64955C74.8594 4.6451 74.8537 4.64066 74.8481 4.63591C73.6574 3.66602 71.8228 3.07519 69.094 3.07519H63.5381ZM82.3433 1.65148C82.3433 0.86519 83.0623 0.227793 83.9491 0.227793H91.0145C93.5423 0.227793 95.7907 0.559988 97.7099 1.27984C99.5676 1.97686 101.121 2.93074 102.314 4.16638C103.479 5.35102 104.336 6.68514 104.875 8.16074C105.396 9.5883 105.659 11.0363 105.659 12.5001C105.659 14.2313 105.301 15.8389 104.554 17.2982C103.847 18.7026 102.864 19.9243 101.609 20.9503L101.596 20.9604C100.348 21.9587 98.9085 22.7243 97.2924 23.2587C97.2857 23.2611 97.279 23.2632 97.2723 23.2653C95.6552 23.779 93.9507 24.032 92.1707 24.032H83.9491C83.0623 24.032 82.3433 23.3946 82.3433 22.6083V1.65148ZM85.5549 3.07519V21.1846H92.1707C93.5981 21.1846 94.9309 20.9832 96.1794 20.5878C97.4255 20.1744 98.5071 19.5948 99.4388 18.8509C100.363 18.0946 101.09 17.1935 101.623 16.134L101.628 16.1251C102.164 15.0799 102.448 13.8801 102.448 12.5001C102.448 11.3442 102.24 10.1916 101.819 9.0375C101.416 7.93384 100.777 6.93488 99.8887 6.03291L99.878 6.02164C99.0591 5.17217 97.938 4.45736 96.4584 3.90241C95.0376 3.36942 93.2395 3.07519 91.0145 3.07519H85.5549ZM107.12 1.65148C107.12 0.86519 107.839 0.227793 108.725 0.227793H113.382C114.269 0.227793 114.988 0.86519 114.988 1.65148V22.6083C114.988 23.3946 114.269 24.032 113.382 24.032H108.725C107.839 24.032 107.12 23.3946 107.12 22.6083V1.65148ZM110.331 3.07519V21.1846H111.776V3.07519H110.331ZM117.877 1.65148C117.877 0.86519 118.596 0.227793 119.483 0.227793H134.256C134.615 0.227793 134.946 0.332192 135.213 0.508375C135.486 0.32893 135.82 0.227793 136.17 0.227793H141.919C142.529 0.227793 143.086 0.533886 143.357 1.01765L147.329 8.1032L151.201 1.0298C151.469 0.53922 152.03 0.227793 152.646 0.227793H158.394C158.961 0.227793 159.485 0.492361 159.775 0.924215C160.064 1.35607 160.075 1.89114 159.805 2.33219L151.136 16.4502V22.6083C151.136 23.3946 150.417 24.032 149.531 24.032H144.874C143.987 24.032 143.268 23.3946 143.268 22.6083V16.4443L135.862 4.15986V5.63783C135.862 6.42413 135.143 7.06153 134.256 7.06153H125.745V8.96928H132.907C133.794 8.96928 134.513 9.60669 134.513 10.393V14.3793C134.513 15.1656 133.794 15.803 132.907 15.803H125.745V22.6083C125.745 23.3946 125.026 24.032 124.14 24.032H119.483C118.596 24.032 117.877 23.3946 117.877 22.6083V1.65148ZM121.089 3.07519V21.1846H122.534V14.3793C122.534 13.593 123.253 12.9556 124.14 12.9556H131.301V11.8167H124.14C123.253 11.8167 122.534 11.1793 122.534 10.393V5.63783C122.534 4.85154 123.253 4.21414 124.14 4.21414H132.65V3.07519H121.089ZM138.849 3.07519L146.29 15.4165C146.414 15.623 146.48 15.8537 146.48 16.0878V21.1846H147.925V16.0878C147.925 15.8499 147.992 15.6159 148.12 15.4071L155.692 3.07519H153.651L148.791 11.9543C148.524 12.4425 147.967 12.7536 147.354 12.7563C146.742 12.759 146.181 12.4526 145.909 11.9665L140.924 3.07519H138.849ZM0.28121 0.989169C0.580606 0.601805 1.07616 0.370157 1.60578 0.370157H7.06541C7.75284 0.370157 8.36404 0.75812 8.58554 1.33501L11.8408 9.8146L13.59 5.92347L11.9655 2.3227C11.7676 1.88402 11.828 1.38692 12.1267 0.995695C12.4254 0.604476 12.9235 0.370157 13.4564 0.370157H18.081C18.7359 0.370157 19.3251 0.722826 19.5702 1.26116L23.1711 9.17483L25.8588 1.37772C26.0652 0.779173 26.6884 0.370157 27.3945 0.370157H32.4045C32.9304 0.370157 33.4232 0.598542 33.7232 0.981457C34.0233 1.36437 34.0929 1.85347 33.9092 2.29037L24.7886 24.016C24.5572 24.5674 23.9674 24.9354 23.3041 24.9431C22.6408 24.9506 22.0406 24.5955 21.7935 24.0498L17.5541 14.6851L12.5676 24.1776C12.2958 24.6949 11.7018 25.0182 11.0584 24.9992C10.415 24.9802 9.84667 24.6225 9.61437 24.0901L0.108204 2.30757C-0.0829127 1.86979 -0.0181866 1.37624 0.28121 0.989169ZM3.94887 3.21755L11.2486 19.9442L16.2079 10.5036C16.4781 9.9893 17.0672 9.6663 17.707 9.68172C18.3469 9.69715 18.9153 10.0477 19.1537 10.5745L23.2272 19.5726L30.0934 3.21755H28.5828L24.9157 13.8558C24.7169 14.4327 24.1295 14.8358 23.4498 14.8619C22.77 14.8883 22.1454 14.5318 21.8909 13.9724L16.9973 3.21755H15.8282L16.81 5.39373C16.9629 5.73275 16.9631 6.11062 16.8107 6.44964L13.2138 14.4508C12.9648 15.0046 12.3532 15.3623 11.681 15.3468C11.0089 15.3317 10.4187 14.9467 10.202 14.3826L5.91574 3.21755H3.94887ZM40.6772 5.10988C42.0388 4.35473 43.5659 3.98635 45.2142 3.98635C46.8628 3.98635 48.3899 4.35473 49.7515 5.10988C51.0836 5.82974 52.1391 6.81743 52.9095 8.04536C53.6997 9.28487 54.0781 10.6679 54.0781 12.1584C54.0781 13.6126 53.7097 14.9755 52.9557 16.2203L52.9497 16.2301C52.1976 17.4489 51.1505 18.4357 49.8251 19.173L49.8181 19.1772C48.4753 19.9151 46.9685 20.2734 45.3427 20.2734C43.6837 20.2734 42.1432 19.9196 40.7629 19.1899C40.7565 19.1864 40.7502 19.1831 40.7438 19.1796C39.4047 18.449 38.3295 17.472 37.5336 16.2654C37.5276 16.2565 37.5219 16.2473 37.5159 16.2381C36.7341 14.9903 36.3503 13.6212 36.3503 12.1584C36.3503 10.6679 36.729 9.28487 37.5189 8.04506C38.2896 6.81742 39.3451 5.82974 40.6772 5.10988ZM45.2142 6.83374C44.126 6.83374 43.1943 7.07102 42.3743 7.52719C42.368 7.53075 42.3616 7.53432 42.3549 7.53787C41.5099 7.99346 40.8355 8.61573 40.3233 9.43288L40.3169 9.44266C39.8248 10.2141 39.5619 11.1072 39.5619 12.1584C39.5619 13.1576 39.8175 14.0427 40.3149 14.8417C40.8432 15.6378 41.539 16.2684 42.4171 16.7492C43.2612 17.1932 44.2226 17.426 45.3427 17.426C46.4132 17.426 47.3245 17.1965 48.122 16.759C48.9771 16.2826 49.6408 15.6583 50.1292 14.8681C50.6153 14.064 50.8665 13.1698 50.8665 12.1584C50.8665 11.1072 50.6039 10.2141 50.1115 9.44266L50.1051 9.43288C49.5933 8.61573 48.9189 7.99346 48.0735 7.53787C48.0671 7.53432 48.0604 7.53075 48.0541 7.52719C47.2341 7.07102 46.3024 6.83374 45.2142 6.83374ZM87.0001 5.60936C87.0001 4.82306 87.719 4.18566 88.6058 4.18566H92.3955C93.1227 4.18566 93.923 4.31142 94.765 4.51756C95.7532 4.73942 96.6802 5.14725 97.545 5.70961C98.5359 6.3393 99.3083 7.20093 99.8921 8.23074C100.563 9.35516 100.842 10.713 100.842 12.2153C100.842 14.627 99.9934 16.6685 98.0876 18.0872C96.2965 19.4361 94.0032 20.0456 91.3678 20.0456H88.6058C87.719 20.0456 87.0001 19.4082 87.0001 18.6219V5.60936ZM90.2116 7.03306V17.1982H91.3678C93.4402 17.1982 94.9346 16.7269 96.0115 15.9145L96.0205 15.9077C97.0238 15.1624 97.6303 14.0163 97.6303 12.2153C97.6303 10.9918 97.3978 10.1346 97.0482 9.55389C97.0418 9.54291 97.0351 9.53164 97.0288 9.52067C96.6307 8.81475 96.1674 8.33633 95.6692 8.02074C95.6632 8.01689 95.6572 8.01303 95.6512 8.00917C95.0687 7.62952 94.507 7.3955 93.9651 7.27538C93.9514 7.27241 93.938 7.26916 93.9246 7.26589C93.2321 7.09535 92.7327 7.03306 92.3955 7.03306H90.2116ZM64.9833 5.63783C64.9833 4.85154 65.7022 4.21414 66.589 4.21414H69.929C70.8942 4.21414 71.8513 4.35591 72.6592 4.77502C73.3443 5.12056 73.9348 5.5886 74.3376 6.20583C74.6493 6.68336 74.8718 7.19351 74.9752 7.73274C75.0689 8.11447 75.1317 8.49679 75.1317 8.85538C75.1317 9.47558 74.9668 10.0985 74.7035 10.7047C74.7022 10.7083 74.7005 10.7115 74.6992 10.7151C74.6982 10.7175 74.6968 10.7198 74.6958 10.7225C74.3566 11.4738 73.7805 12.0895 73.0526 12.5801L73.0442 12.5855C72.1497 13.1805 71.031 13.3827 69.8969 13.3827H66.589C65.7022 13.3827 64.9833 12.7453 64.9833 11.959V5.63783ZM68.1948 7.06153V10.5353H69.8969C70.6413 10.5353 70.9792 10.3983 71.1143 10.3096C71.4492 10.083 71.6208 9.8671 71.7104 9.67253C71.872 9.29703 71.9202 9.03097 71.9202 8.85538C71.9202 8.77115 71.9021 8.59823 71.8302 8.30993C71.8229 8.28116 71.8165 8.25239 71.8115 8.22333C71.782 8.05841 71.7088 7.86266 71.5582 7.63249C71.4927 7.53224 71.3598 7.39462 71.0658 7.2475C71.0571 7.24305 71.0481 7.23831 71.039 7.23356C70.9076 7.16475 70.5857 7.06153 69.929 7.06153H68.1948Z" fill="white"/>
</svg>
