<svg width="160" height="26" viewBox="0 0 160 26" fill="none" xmlns="http://www.w3.org/2000/svg">
<path d="M1.60581 1.80086H7.06543L11.7222 13.9783L15.3191 5.94576L13.4564 1.80086H18.081L23.3801 13.4924L27.3945 1.80086H32.4045L23.2837 23.6116L17.6635 11.1483L11.112 23.6688L1.60581 1.80086Z" fill="white"/>
<path d="M33.1389 12.2063C33.1389 10.758 33.4492 9.38586 34.0701 8.08998C34.691 6.7941 35.5474 5.65068 36.6393 4.65971C37.7527 3.64969 39.0373 2.85881 40.4932 2.2871C41.9491 1.71539 43.5121 1.42953 45.1821 1.42953C46.8306 1.42953 48.3829 1.71539 49.8388 2.2871C51.2947 2.85881 52.5793 3.64969 53.6926 4.65971C54.8274 5.65068 55.7052 6.7941 56.3261 8.08998C56.9684 9.38586 57.2896 10.758 57.2896 12.2063C57.2896 13.6928 56.9684 15.0839 56.3261 16.3798C55.7052 17.6757 54.8274 18.8191 53.6926 19.8101C52.5793 20.782 51.2947 21.5443 49.8388 22.0969C48.3829 22.6496 46.8306 22.9259 45.1821 22.9259C43.5121 22.9259 41.9491 22.6496 40.4932 22.0969C39.0373 21.5443 37.7527 20.782 36.6393 19.8101C35.5474 18.8191 34.691 17.6757 34.0701 16.3798C33.4492 15.0839 33.1389 13.6928 33.1389 12.2063ZM37.9561 12.2063C37.9561 13.445 38.2772 14.5789 38.9195 15.608C39.5833 16.618 40.4718 17.4279 41.5851 18.0378C42.6985 18.6285 43.951 18.9239 45.3426 18.9239C46.6915 18.9239 47.9012 18.6285 48.9717 18.0378C50.0636 17.4279 50.92 16.618 51.5409 15.608C52.1618 14.5789 52.4723 13.445 52.4723 12.2063C52.4723 10.9295 52.1511 9.78605 51.5088 8.77603C50.8665 7.74695 49.9994 6.93703 48.9074 6.34626C47.8155 5.73643 46.5844 5.43152 45.2142 5.43152C43.8439 5.43152 42.6128 5.73643 41.5209 6.34626C40.429 6.93703 39.5619 7.74695 38.9195 8.77603C38.2772 9.78605 37.9561 10.9295 37.9561 12.2063Z" fill="white"/>
<path d="M69.094 1.65809C72.0701 1.65809 74.3503 2.30603 75.9346 3.60191C77.5404 4.87873 78.3433 6.59387 78.3433 8.74731C78.3433 9.94791 78.0542 11.1294 77.4762 12.2919C76.9195 13.4544 75.9667 14.3787 74.6179 15.0647L80.1096 22.6971H74.6821L69.7042 16.0081H66.589V22.6971H61.9323V1.65809H69.094ZM69.8969 12.0061C70.839 12.0061 71.5669 11.8346 72.0808 11.4915C72.616 11.1294 72.9907 10.7102 73.2048 10.2338C73.4189 9.73828 73.526 9.29043 73.526 8.89024C73.526 8.66155 73.4831 8.3757 73.3975 8.03268C73.3333 7.67059 73.1834 7.30851 72.9479 6.94642C72.7124 6.58434 72.3484 6.27943 71.856 6.03169C71.3849 5.78395 70.7426 5.66007 69.929 5.66007H66.589V12.0061H69.8969Z" fill="white"/>
<path d="M83.9491 22.6971V1.65809H91.0145C93.391 1.65809 95.4143 1.97253 97.0843 2.60141C98.7543 3.23029 100.092 4.0688 101.099 5.11694C102.126 6.16508 102.876 7.33709 103.347 8.63297C103.818 9.92885 104.053 11.2343 104.053 12.5492C104.053 14.1119 103.732 15.5221 103.09 16.7799C102.469 18.0186 101.613 19.0858 100.521 19.9814C99.4287 20.8581 98.1655 21.5346 96.731 22.011C95.2965 22.4684 93.7764 22.6971 92.1706 22.6971H83.9491ZM88.6058 18.6951H91.3677C93.7229 18.6951 95.6177 18.152 97.0522 17.0657C98.5081 15.9795 99.236 14.3787 99.236 12.2633C99.236 10.8912 98.9791 9.77639 98.4652 8.91882C97.9728 8.0422 97.3519 7.36567 96.6026 6.88925C95.8746 6.41282 95.1252 6.08886 94.3545 5.91734C93.5837 5.72677 92.9307 5.63148 92.3954 5.63148H88.6058V18.6951Z" fill="white"/>
<path d="M108.725 1.65809H113.382V22.6971H108.725V1.65809Z" fill="white"/>
<path d="M119.483 1.65809H134.256V5.66007H124.14V10.4339H132.907V14.4358H124.14V22.6971H119.483V1.65809Z" fill="white"/>
<path d="M144.874 16.151L136.17 1.65809H141.919L147.347 11.3772L152.646 1.65809H158.394L149.53 16.151V22.6971H144.874V16.151Z" fill="white"/>
<path fill-rule="evenodd" clip-rule="evenodd" d="M45.1821 2.85856C43.7242 2.85856 42.383 3.10689 41.1416 3.59463C39.8717 4.09309 38.7563 4.78005 37.7858 5.66054C36.8361 6.52228 36.0907 7.51592 35.5471 8.65041C35.0139 9.76406 34.7446 10.945 34.7446 12.206C34.7446 13.5106 35.0159 14.71 35.5471 15.8188C36.0887 16.9492 36.8304 17.9395 37.7751 18.7992C38.7409 19.6398 39.8533 20.2999 41.1232 20.782C42.369 21.2549 43.7165 21.4963 45.1821 21.4963C46.6236 21.4963 47.9604 21.2558 49.2089 20.782C50.4838 20.2981 51.6002 19.6347 52.5683 18.7894C53.5535 17.9291 54.3112 16.9417 54.8492 15.8188C54.8518 15.8135 54.8545 15.8081 54.8572 15.8028C55.4048 14.6974 55.6838 13.5037 55.6838 12.206C55.6838 10.9518 55.4072 9.77657 54.8572 8.66649C54.8545 8.66113 54.8518 8.65577 54.8492 8.65041C54.3112 7.52753 53.5535 6.54014 52.5683 5.6796C52.5609 5.67334 52.5536 5.6668 52.5466 5.66054C51.5761 4.78005 50.4604 4.09309 49.1908 3.59463C47.9464 3.106 46.6159 2.85856 45.1821 2.85856ZM39.8452 0.979054C41.5152 0.323373 43.3003 0 45.1821 0C47.0458 0 48.8195 0.324266 50.4872 0.979054C52.1244 1.62223 53.5746 2.51374 54.8284 3.64883C56.105 4.76605 57.0979 6.05955 57.7994 7.52098C58.5311 9.00058 58.8954 10.5668 58.8954 12.206C58.8954 13.878 58.5334 15.4639 57.7994 16.9483C57.0959 18.4139 56.0993 19.7107 54.8174 20.83C53.5592 21.9284 52.106 22.7898 50.4688 23.4113C48.8054 24.0428 47.0381 24.3549 45.1821 24.3549C43.3077 24.3549 41.5293 24.0437 39.8633 23.4113C38.2264 22.7898 36.7735 21.9287 35.515 20.8302C35.5076 20.8237 35.5003 20.8171 35.4929 20.8106C34.2588 19.6907 33.2913 18.3972 32.5932 16.9402C31.8827 15.4573 31.5331 13.8744 31.5331 12.206C31.5331 10.5704 31.8849 9.00714 32.5932 7.52902C33.2913 6.07205 34.2588 4.77855 35.4929 3.65865C36.7491 2.5191 38.203 1.62402 39.8452 0.979054ZM60.3265 1.65796C60.3265 0.868583 61.0454 0.228686 61.9323 0.228686H69.094C72.3129 0.228686 75.0354 0.929627 77.0128 2.54263C78.9983 4.12496 79.9491 6.24625 79.9491 8.74719C79.9491 10.1553 79.6095 11.5304 78.9491 12.8611C78.4607 13.8771 77.7344 14.7388 76.7994 15.446L81.4618 21.926C81.7786 22.3661 81.8 22.9247 81.5184 23.383C81.2367 23.8413 80.6967 24.1262 80.1096 24.1262H74.6821C74.1435 24.1262 73.641 23.8859 73.3436 23.4863L68.8418 17.4372H68.1948V22.6969C68.1948 23.4863 67.4759 24.1262 66.589 24.1262H61.9323C61.0454 24.1262 60.3265 23.4863 60.3265 22.6969V1.65796ZM63.5381 3.08725V21.2677H64.9833V16.0079C64.9833 15.2185 65.7022 14.5786 66.589 14.5786H69.7042C70.2428 14.5786 70.7456 14.8189 71.043 15.2185L75.5446 21.2677H77.1744L73.2657 15.8355C73.0285 15.5056 72.9536 15.1036 73.0586 14.7234C73.1637 14.3431 73.4393 14.018 73.8214 13.8235C74.8962 13.2768 75.5927 12.5797 75.9992 11.7314C76.0002 11.7287 76.0015 11.726 76.0029 11.7234C76.0045 11.7201 76.0062 11.7165 76.0079 11.7132C76.5007 10.722 76.7375 9.73696 76.7375 8.74719C76.7375 6.94481 76.0855 5.63821 74.8648 4.66778C74.8594 4.66332 74.8537 4.65885 74.8481 4.65409C73.6574 3.68039 71.8228 3.08725 69.094 3.08725H63.5381ZM82.3433 1.65796C82.3433 0.868583 83.0623 0.228686 83.9491 0.228686H91.0145C93.5423 0.228686 95.7907 0.562184 97.7099 1.28486C99.5676 1.98461 101.121 2.94223 102.314 4.18272C103.479 5.372 104.336 6.71136 104.875 8.19275C105.396 9.6259 105.659 11.0796 105.659 12.5491C105.659 14.2871 105.301 15.901 104.554 17.366C103.847 18.776 102.864 20.0025 101.609 21.0324L101.596 21.0426C100.348 22.0448 98.9085 22.8134 97.2924 23.3499C97.2857 23.3523 97.279 23.3544 97.2723 23.3565C95.6552 23.8722 93.9507 24.1262 92.1707 24.1262H83.9491C83.0623 24.1262 82.3433 23.4863 82.3433 22.6969V1.65796ZM85.5549 3.08725V21.2677H92.1707C93.5981 21.2677 94.9309 21.0655 96.1794 20.6686C97.4255 20.2535 98.5071 19.6716 99.4388 18.9248C100.363 18.1655 101.09 17.2609 101.623 16.1973L101.628 16.1884C102.164 15.139 102.448 13.9346 102.448 12.5491C102.448 11.3887 102.24 10.2316 101.819 9.07294C101.416 7.96495 100.777 6.96208 99.8887 6.05657L99.878 6.04525C99.0591 5.19245 97.938 4.47484 96.4584 3.91772C95.0376 3.38263 93.2395 3.08725 91.0145 3.08725H85.5549ZM107.12 1.65796C107.12 0.868583 107.839 0.228686 108.725 0.228686H113.382C114.269 0.228686 114.988 0.868583 114.988 1.65796V22.6969C114.988 23.4863 114.269 24.1262 113.382 24.1262H108.725C107.839 24.1262 107.12 23.4863 107.12 22.6969V1.65796ZM110.331 3.08725V21.2677H111.776V3.08725H110.331ZM117.877 1.65796C117.877 0.868583 118.596 0.228686 119.483 0.228686H134.256C134.615 0.228686 134.946 0.333495 135.213 0.510368C135.486 0.33022 135.82 0.228686 136.17 0.228686H141.919C142.529 0.228686 143.086 0.535979 143.357 1.02164L147.329 8.13498L151.201 1.03384C151.469 0.541335 152.03 0.228686 152.646 0.228686H158.394C158.961 0.228686 159.485 0.494291 159.775 0.927839C160.064 1.36139 160.075 1.89856 159.805 2.34134L151.136 16.5147V22.6969C151.136 23.4863 150.417 24.1262 149.531 24.1262H144.874C143.987 24.1262 143.268 23.4863 143.268 22.6969V16.5088L135.862 4.17617V5.65994C135.862 6.44932 135.143 7.08923 134.256 7.08923H125.745V9.00445H132.907C133.794 9.00445 134.513 9.64436 134.513 10.4337V14.4357C134.513 15.2251 133.794 15.865 132.907 15.865H125.745V22.6969C125.745 23.4863 125.026 24.1262 124.14 24.1262H119.483C118.596 24.1262 117.877 23.4863 117.877 22.6969V1.65796ZM121.089 3.08725V21.2677H122.534V14.4357C122.534 13.6463 123.253 13.0064 124.14 13.0064H131.301V11.863H124.14C123.253 11.863 122.534 11.2231 122.534 10.4337V5.65994C122.534 4.87056 123.253 4.23067 124.14 4.23067H132.65V3.08725H121.089ZM138.849 3.08725L146.29 15.477C146.414 15.6842 146.48 15.9159 146.48 16.1508V21.2677H147.925V16.1508C147.925 15.912 147.992 15.6771 148.12 15.4675L155.692 3.08725H153.651L148.791 12.0012C148.524 12.4913 147.967 12.8037 147.354 12.8063C146.742 12.809 146.181 12.5014 145.909 12.0134L140.924 3.08725H138.849ZM0.28121 0.993048C0.580606 0.604165 1.07616 0.371608 1.60578 0.371608H7.06541C7.75284 0.371608 8.36404 0.761093 8.58554 1.34025L11.8408 9.85309L13.59 5.9467L11.9655 2.33181C11.7676 1.89141 11.828 1.39235 12.1267 0.9996C12.4254 0.606846 12.9235 0.371608 13.4564 0.371608H18.081C18.7359 0.371608 19.3251 0.725661 19.5702 1.26611L23.1711 9.21081L25.8588 1.38312C26.0652 0.782229 26.6884 0.371608 27.3945 0.371608H32.4045C32.9304 0.371608 33.4232 0.60089 33.7232 0.985306C34.0233 1.36972 34.0929 1.86074 33.9092 2.29935L24.7886 24.1101C24.5572 24.6637 23.9674 25.0332 23.3041 25.041C22.6408 25.0484 22.0406 24.692 21.7935 24.1441L17.5541 14.7427L12.5676 24.2724C12.2958 24.7917 11.7018 25.1163 11.0584 25.0972C10.415 25.0782 9.84667 24.7191 9.61437 24.1846L0.108204 2.31662C-0.0829127 1.87712 -0.0181866 1.38163 0.28121 0.993048ZM3.94887 3.23017L11.2486 20.0224L16.2079 10.5448C16.4781 10.0285 17.0672 9.70421 17.707 9.71969C18.3469 9.73517 18.9153 10.0871 19.1537 10.616L23.2272 19.6493L30.0934 3.23017H28.5828L24.9157 13.9102C24.7169 14.4893 24.1295 14.894 23.4498 14.9202C22.77 14.9467 22.1454 14.5888 21.8909 14.0272L16.9973 3.23017H15.8282L16.81 5.41488C16.9629 5.75523 16.9631 6.13458 16.8107 6.47493L13.2138 14.5075C12.9648 15.0634 12.3532 15.4225 11.681 15.407C11.0089 15.3918 10.4187 15.0053 10.202 14.439L5.91574 3.23017H3.94887ZM40.6772 5.12992C42.0388 4.37181 43.5659 4.00198 45.2142 4.00198C46.8628 4.00198 48.3899 4.37181 49.7515 5.12992C51.0836 5.8526 52.1391 6.84416 52.9095 8.07691C53.6997 9.32128 54.0781 10.7098 54.0781 12.206C54.0781 13.666 53.7097 15.0342 52.9557 16.284L52.9497 16.2938C52.1976 17.5173 51.1505 18.508 49.8251 19.2482L49.8181 19.2524C48.4753 19.9932 46.9685 20.3529 45.3427 20.3529C43.6837 20.3529 42.1432 19.9977 40.7629 19.2652C40.7565 19.2616 40.7502 19.2583 40.7438 19.2548C39.4047 18.5214 38.3295 17.5405 37.5336 16.3292C37.5276 16.3203 37.5219 16.3111 37.5159 16.3018C36.7341 15.0491 36.3503 13.6746 36.3503 12.206C36.3503 10.7098 36.729 9.32128 37.5189 8.07661C38.2896 6.84416 39.3451 5.8526 40.6772 5.12992ZM45.2142 6.86054C44.126 6.86054 43.1943 7.09875 42.3743 7.55671C42.368 7.56029 42.3616 7.56386 42.3549 7.56744C41.5099 8.0248 40.8355 8.64952 40.3233 9.46987L40.3169 9.47969C39.8248 10.2542 39.5619 11.1508 39.5619 12.206C39.5619 13.2092 39.8175 14.0978 40.3149 14.8999C40.8432 15.6991 41.539 16.3322 42.4171 16.8149C43.2612 17.2606 44.2226 17.4944 45.3427 17.4944C46.4132 17.4944 47.3245 17.2639 48.122 16.8247C48.9771 16.3465 49.6408 15.7197 50.1292 14.9264C50.6153 14.1192 50.8665 13.2214 50.8665 12.206C50.8665 11.1508 50.6039 10.2542 50.1115 9.47969L50.1051 9.46987C49.5933 8.64952 48.9189 8.0248 48.0735 7.56744C48.0671 7.56386 48.0604 7.56029 48.0541 7.55671C47.2341 7.09875 46.3024 6.86054 45.2142 6.86054ZM87.0001 5.63135C87.0001 4.84198 87.719 4.20208 88.6058 4.20208H92.3955C93.1227 4.20208 93.923 4.32833 94.765 4.53528C95.7532 4.75801 96.6802 5.16744 97.545 5.732C98.5359 6.36416 99.3083 7.22917 99.8921 8.26302C100.563 9.39185 100.842 10.755 100.842 12.2632C100.842 14.6843 99.9934 16.7339 98.0876 18.1581C96.2965 19.5123 94.0032 20.1242 91.3678 20.1242H88.6058C87.719 20.1242 87.0001 19.4843 87.0001 18.695V5.63135ZM90.2116 7.06064V17.2657H91.3678C93.4402 17.2657 94.9346 16.7925 96.0115 15.977L96.0205 15.9701C97.0238 15.2218 97.6303 14.0712 97.6303 12.2632C97.6303 11.0349 97.3978 10.1744 97.0482 9.59135C97.0418 9.58034 97.0351 9.56902 97.0288 9.558C96.6307 8.84932 96.1674 8.36902 95.6692 8.0522C95.6632 8.04833 95.6572 8.04445 95.6512 8.04058C95.0687 7.65944 94.507 7.42451 93.9651 7.30391C93.9514 7.30093 93.938 7.29766 93.9246 7.29439C93.2321 7.12317 92.7327 7.06064 92.3955 7.06064H90.2116ZM64.9833 5.65994C64.9833 4.87056 65.7022 4.23067 66.589 4.23067H69.929C70.8942 4.23067 71.8513 4.373 72.6592 4.79374C73.3443 5.14064 73.9348 5.61052 74.3376 6.23017C74.6493 6.70957 74.8718 7.22172 74.9752 7.76306C75.0689 8.14629 75.1317 8.53011 75.1317 8.89011C75.1317 9.51274 74.9668 10.1381 74.7035 10.7467C74.7022 10.7503 74.7005 10.7535 74.6992 10.7571C74.6982 10.7595 74.6968 10.7619 74.6958 10.7646C74.3566 11.5188 73.7805 12.137 73.0526 12.6295L73.0442 12.6348C72.1497 13.2321 71.031 13.4352 69.8969 13.4352H66.589C65.7022 13.4352 64.9833 12.7953 64.9833 12.0059V5.65994ZM68.1948 7.08923V10.5767H69.8969C70.6413 10.5767 70.9792 10.4391 71.1143 10.3501C71.4492 10.1226 71.6208 9.90579 71.7104 9.71046C71.872 9.33349 71.9202 9.06639 71.9202 8.89011C71.9202 8.80554 71.9021 8.63195 71.8302 8.34252C71.8229 8.31364 71.8165 8.28476 71.8115 8.25557C71.782 8.09002 71.7088 7.89349 71.5582 7.66242C71.4927 7.56178 71.3598 7.42361 71.0658 7.27592C71.0571 7.27146 71.0481 7.26669 71.039 7.26193C70.9076 7.19285 70.5857 7.08923 69.929 7.08923H68.1948Z" fill="white"/>
</svg>
